<?xml version="1.0" encoding="UTF-8"?>
<svg version="1.1" xmlns="http://www.w3.org/2000/svg" width="480" height="480">
<path d="M0,0 L4,0 L4,1 L5,1 L5,2 L6,2 L6,3 L7,3 L7,4 L8,4 L8,5 L9,5 L9,6 L10,6 L10,7 L11,7 L11,8 L12,8 L12,9 L13,9 L13,10 L14,10 L14,11 L15,11 L15,12 L16,12 L16,13 L17,13 L17,14 L18,14 L18,15 L19,15 L19,16 L20,16 L20,17 L21,17 L21,18 L22,18 L22,19 L23,19 L23,20 L24,20 L24,21 L25,21 L25,22 L26,22 L26,23 L27,23 L27,24 L28,24 L28,25 L29,25 L29,26 L30,26 L30,27 L31,27 L31,28 L32,28 L32,29 L33,29 L33,30 L34,30 L34,31 L35,31 L35,32 L36,32 L36,33 L37,33 L37,34 L38,34 L38,35 L39,35 L39,36 L40,36 L40,37 L41,37 L41,38 L42,38 L42,39 L43,39 L43,40 L44,40 L44,41 L45,41 L45,42 L46,42 L46,43 L47,43 L47,44 L48,44 L48,45 L49,45 L49,46 L50,46 L50,47 L51,47 L51,48 L52,48 L52,49 L53,49 L53,50 L54,50 L54,51 L55,51 L55,52 L56,52 L56,53 L57,53 L57,54 L58,54 L58,55 L59,55 L59,56 L60,56 L60,57 L61,57 L61,58 L62,58 L62,59 L63,59 L63,60 L64,60 L64,61 L65,61 L65,62 L66,62 L66,63 L67,63 L67,64 L68,64 L68,65 L69,65 L69,66 L70,66 L70,67 L71,67 L71,68 L72,68 L72,69 L172,69 L172,70 L173,70 L173,170 L174,170 L174,171 L175,171 L175,172 L176,172 L176,173 L177,173 L177,174 L178,174 L178,175 L179,175 L179,176 L180,176 L180,177 L181,177 L181,178 L182,178 L182,179 L183,179 L183,180 L184,180 L184,181 L185,181 L185,182 L186,182 L186,183 L187,183 L187,184 L188,184 L188,185 L189,185 L189,186 L190,186 L190,187 L191,187 L191,188 L192,188 L192,189 L193,189 L193,190 L194,190 L194,191 L195,191 L195,192 L196,192 L196,193 L197,193 L197,194 L198,194 L198,195 L199,195 L199,196 L200,196 L200,197 L201,197 L201,198 L202,198 L202,199 L203,199 L203,200 L204,200 L204,201 L205,201 L205,202 L206,202 L206,203 L207,203 L207,204 L208,204 L208,205 L209,205 L209,206 L210,206 L210,207 L211,207 L211,208 L212,208 L212,209 L213,209 L213,210 L214,210 L214,211 L215,211 L215,212 L216,212 L216,213 L217,213 L217,214 L218,214 L218,215 L219,215 L219,216 L220,216 L220,217 L221,217 L221,218 L222,218 L222,219 L223,219 L223,220 L224,220 L224,221 L225,221 L225,222 L226,222 L226,223 L227,223 L227,224 L228,224 L228,225 L229,225 L229,226 L230,226 L230,227 L231,227 L231,228 L232,228 L232,229 L233,229 L233,230 L234,230 L234,231 L235,231 L235,232 L236,232 L236,233 L237,233 L237,234 L238,234 L238,235 L239,235 L239,236 L240,236 L240,237 L241,237 L241,238 L242,238 L242,242 L241,242 L241,243 L240,243 L240,244 L239,244 L239,245 L238,245 L238,246 L237,246 L237,247 L236,247 L236,248 L235,248 L235,249 L234,249 L234,250 L233,250 L233,251 L232,251 L232,252 L231,252 L231,253 L230,253 L230,254 L229,254 L229,255 L228,255 L228,256 L227,256 L227,257 L226,257 L226,258 L225,258 L225,259 L224,259 L224,260 L223,260 L223,261 L222,261 L222,262 L221,262 L221,263 L220,263 L220,264 L219,264 L219,265 L218,265 L218,266 L217,266 L217,267 L216,267 L216,268 L215,268 L215,269 L214,269 L214,270 L213,270 L213,271 L212,271 L212,272 L211,272 L211,273 L210,273 L210,274 L209,274 L209,275 L208,275 L208,276 L207,276 L207,277 L206,277 L206,278 L205,278 L205,279 L204,279 L204,280 L203,280 L203,281 L202,281 L202,282 L201,282 L201,283 L200,283 L200,284 L199,284 L199,285 L198,285 L198,286 L197,286 L197,287 L196,287 L196,288 L195,288 L195,289 L194,289 L194,290 L193,290 L193,291 L192,291 L192,292 L191,292 L191,293 L190,293 L190,294 L189,294 L189,295 L188,295 L188,296 L187,296 L187,297 L186,297 L186,298 L185,298 L185,299 L184,299 L184,300 L183,300 L183,301 L182,301 L182,302 L181,302 L181,303 L180,303 L180,304 L179,304 L179,305 L178,305 L178,306 L177,306 L177,307 L176,307 L176,308 L175,308 L175,309 L174,309 L174,310 L173,310 L173,410 L172,410 L172,411 L72,411 L72,412 L71,412 L71,413 L70,413 L70,414 L69,414 L69,415 L68,415 L68,416 L67,416 L67,417 L66,417 L66,418 L65,418 L65,419 L64,419 L64,420 L63,420 L63,421 L62,421 L62,422 L61,422 L61,423 L60,423 L60,424 L59,424 L59,425 L58,425 L58,426 L57,426 L57,427 L56,427 L56,428 L55,428 L55,429 L54,429 L54,430 L53,430 L53,431 L52,431 L52,432 L51,432 L51,433 L50,433 L50,434 L49,434 L49,435 L48,435 L48,436 L47,436 L47,437 L46,437 L46,438 L45,438 L45,439 L44,439 L44,440 L43,440 L43,441 L42,441 L42,442 L41,442 L41,443 L40,443 L40,444 L39,444 L39,445 L38,445 L38,446 L37,446 L37,447 L36,447 L36,448 L35,448 L35,449 L34,449 L34,450 L33,450 L33,451 L32,451 L32,452 L31,452 L31,453 L30,453 L30,454 L29,454 L29,455 L28,455 L28,456 L27,456 L27,457 L26,457 L26,458 L25,458 L25,459 L24,459 L24,460 L23,460 L23,461 L22,461 L22,462 L21,462 L21,463 L20,463 L20,464 L19,464 L19,465 L18,465 L18,466 L17,466 L17,467 L16,467 L16,468 L15,468 L15,469 L14,469 L14,470 L13,470 L13,471 L12,471 L12,472 L11,472 L11,473 L10,473 L10,474 L9,474 L9,475 L8,475 L8,476 L7,476 L7,477 L6,477 L6,478 L5,478 L5,479 L4,479 L4,480 L0,480 L0,479 L-1,479 L-1,478 L-2,478 L-2,477 L-3,477 L-3,476 L-4,476 L-4,475 L-5,475 L-5,474 L-6,474 L-6,473 L-7,473 L-7,472 L-8,472 L-8,471 L-9,471 L-9,470 L-10,470 L-10,469 L-11,469 L-11,468 L-12,468 L-12,467 L-13,467 L-13,466 L-14,466 L-14,465 L-15,465 L-15,464 L-16,464 L-16,463 L-17,463 L-17,462 L-18,462 L-18,461 L-19,461 L-19,460 L-20,460 L-20,459 L-21,459 L-21,458 L-22,458 L-22,457 L-23,457 L-23,456 L-24,456 L-24,455 L-25,455 L-25,454 L-26,454 L-26,453 L-27,453 L-27,452 L-28,452 L-28,451 L-29,451 L-29,450 L-30,450 L-30,449 L-31,449 L-31,448 L-32,448 L-32,447 L-33,447 L-33,446 L-34,446 L-34,445 L-35,445 L-35,444 L-36,444 L-36,443 L-37,443 L-37,442 L-38,442 L-38,441 L-39,441 L-39,440 L-40,440 L-40,439 L-41,439 L-41,438 L-42,438 L-42,437 L-43,437 L-43,436 L-44,436 L-44,435 L-45,435 L-45,434 L-46,434 L-46,433 L-47,433 L-47,432 L-48,432 L-48,431 L-49,431 L-49,430 L-50,430 L-50,429 L-51,429 L-51,428 L-52,428 L-52,427 L-53,427 L-53,426 L-54,426 L-54,425 L-55,425 L-55,424 L-56,424 L-56,423 L-57,423 L-57,422 L-58,422 L-58,421 L-59,421 L-59,420 L-60,420 L-60,419 L-61,419 L-61,418 L-62,418 L-62,417 L-63,417 L-63,416 L-64,416 L-64,415 L-65,415 L-65,414 L-66,414 L-66,413 L-67,413 L-67,412 L-68,412 L-68,411 L-168,411 L-168,410 L-169,410 L-169,310 L-170,310 L-170,309 L-171,309 L-171,308 L-172,308 L-172,307 L-173,307 L-173,306 L-174,306 L-174,305 L-175,305 L-175,304 L-176,304 L-176,303 L-177,303 L-177,302 L-178,302 L-178,301 L-179,301 L-179,300 L-180,300 L-180,299 L-181,299 L-181,298 L-182,298 L-182,297 L-183,297 L-183,296 L-184,296 L-184,295 L-185,295 L-185,294 L-186,294 L-186,293 L-187,293 L-187,292 L-188,292 L-188,291 L-189,291 L-189,290 L-190,290 L-190,289 L-191,289 L-191,288 L-192,288 L-192,287 L-193,287 L-193,286 L-194,286 L-194,285 L-195,285 L-195,284 L-196,284 L-196,283 L-197,283 L-197,282 L-198,282 L-198,281 L-199,281 L-199,280 L-200,280 L-200,279 L-201,279 L-201,278 L-202,278 L-202,277 L-203,277 L-203,276 L-204,276 L-204,275 L-205,275 L-205,274 L-206,274 L-206,273 L-207,273 L-207,272 L-208,272 L-208,271 L-209,271 L-209,270 L-210,270 L-210,269 L-211,269 L-211,268 L-212,268 L-212,267 L-213,267 L-213,266 L-214,266 L-214,265 L-215,265 L-215,264 L-216,264 L-216,263 L-217,263 L-217,262 L-218,262 L-218,261 L-219,261 L-219,260 L-220,260 L-220,259 L-221,259 L-221,258 L-222,258 L-222,257 L-223,257 L-223,256 L-224,256 L-224,255 L-225,255 L-225,254 L-226,254 L-226,253 L-227,253 L-227,252 L-228,252 L-228,251 L-229,251 L-229,250 L-230,250 L-230,249 L-231,249 L-231,248 L-232,248 L-232,247 L-233,247 L-233,246 L-234,246 L-234,245 L-235,245 L-235,244 L-236,244 L-236,243 L-237,243 L-237,242 L-238,242 L-238,238 L-237,238 L-237,237 L-236,237 L-236,236 L-235,236 L-235,235 L-234,235 L-234,234 L-233,234 L-233,233 L-232,233 L-232,232 L-231,232 L-231,231 L-230,231 L-230,230 L-229,230 L-229,229 L-228,229 L-228,228 L-227,228 L-227,227 L-226,227 L-226,226 L-225,226 L-225,225 L-224,225 L-224,224 L-223,224 L-223,223 L-222,223 L-222,222 L-221,222 L-221,221 L-220,221 L-220,220 L-219,220 L-219,219 L-218,219 L-218,218 L-217,218 L-217,217 L-216,217 L-216,216 L-215,216 L-215,215 L-214,215 L-214,214 L-213,214 L-213,213 L-212,213 L-212,212 L-211,212 L-211,211 L-210,211 L-210,210 L-209,210 L-209,209 L-208,209 L-208,208 L-207,208 L-207,207 L-206,207 L-206,206 L-205,206 L-205,205 L-204,205 L-204,204 L-203,204 L-203,203 L-202,203 L-202,202 L-201,202 L-201,201 L-200,201 L-200,200 L-199,200 L-199,199 L-198,199 L-198,198 L-197,198 L-197,197 L-196,197 L-196,196 L-195,196 L-195,195 L-194,195 L-194,194 L-193,194 L-193,193 L-192,193 L-192,192 L-191,192 L-191,191 L-190,191 L-190,190 L-189,190 L-189,189 L-188,189 L-188,188 L-187,188 L-187,187 L-186,187 L-186,186 L-185,186 L-185,185 L-184,185 L-184,184 L-183,184 L-183,183 L-182,183 L-182,182 L-181,182 L-181,181 L-180,181 L-180,180 L-179,180 L-179,179 L-178,179 L-178,178 L-177,178 L-177,177 L-176,177 L-176,176 L-175,176 L-175,175 L-174,175 L-174,174 L-173,174 L-173,173 L-172,173 L-172,172 L-171,172 L-171,171 L-170,171 L-170,170 L-169,170 L-169,70 L-168,70 L-168,69 L-68,69 L-68,68 L-67,68 L-67,67 L-66,67 L-66,66 L-65,66 L-65,65 L-64,65 L-64,64 L-63,64 L-63,63 L-62,63 L-62,62 L-61,62 L-61,61 L-60,61 L-60,60 L-59,60 L-59,59 L-58,59 L-58,58 L-57,58 L-57,57 L-56,57 L-56,56 L-55,56 L-55,55 L-54,55 L-54,54 L-53,54 L-53,53 L-52,53 L-52,52 L-51,52 L-51,51 L-50,51 L-50,50 L-49,50 L-49,49 L-48,49 L-48,48 L-47,48 L-47,47 L-46,47 L-46,46 L-45,46 L-45,45 L-44,45 L-44,44 L-43,44 L-43,43 L-42,43 L-42,42 L-41,42 L-41,41 L-40,41 L-40,40 L-39,40 L-39,39 L-38,39 L-38,38 L-37,38 L-37,37 L-36,37 L-36,36 L-35,36 L-35,35 L-34,35 L-34,34 L-33,34 L-33,33 L-32,33 L-32,32 L-31,32 L-31,31 L-30,31 L-30,30 L-29,30 L-29,29 L-28,29 L-28,28 L-27,28 L-27,27 L-26,27 L-26,26 L-25,26 L-25,25 L-24,25 L-24,24 L-23,24 L-23,23 L-22,23 L-22,22 L-21,22 L-21,21 L-20,21 L-20,20 L-19,20 L-19,19 L-18,19 L-18,18 L-17,18 L-17,17 L-16,17 L-16,16 L-15,16 L-15,15 L-14,15 L-14,14 L-13,14 L-13,13 L-12,13 L-12,12 L-11,12 L-11,11 L-10,11 L-10,10 L-9,10 L-9,9 L-8,9 L-8,8 L-7,8 L-7,7 L-6,7 L-6,6 L-5,6 L-5,5 L-4,5 L-4,4 L-3,4 L-3,3 L-2,3 L-2,2 L-1,2 L-1,1 L0,1 Z " fill="#E2E3E3" transform="translate(238,0)"/>
<path d="M0,0 L4,0 L4,1 L5,1 L5,2 L6,2 L6,3 L7,3 L7,4 L8,4 L8,5 L9,5 L9,6 L10,6 L10,7 L11,7 L11,8 L12,8 L12,9 L13,9 L13,10 L14,10 L14,11 L15,11 L15,12 L16,12 L16,13 L17,13 L17,14 L18,14 L18,15 L19,15 L19,16 L20,16 L20,17 L21,17 L21,18 L22,18 L22,19 L23,19 L23,20 L24,20 L24,21 L25,21 L25,22 L26,22 L26,23 L27,23 L27,24 L28,24 L28,25 L29,25 L29,26 L30,26 L30,27 L31,27 L31,28 L32,28 L32,29 L33,29 L33,30 L34,30 L34,31 L35,31 L35,32 L36,32 L36,33 L37,33 L37,34 L38,34 L38,35 L39,35 L39,36 L40,36 L40,37 L41,37 L41,38 L42,38 L42,39 L43,39 L43,40 L44,40 L44,41 L45,41 L45,42 L46,42 L46,43 L47,43 L47,44 L48,44 L48,45 L49,45 L49,46 L50,46 L50,47 L51,47 L51,48 L52,48 L52,49 L53,49 L53,50 L54,50 L54,51 L55,51 L55,52 L56,52 L56,53 L57,53 L57,54 L58,54 L58,55 L59,55 L59,56 L60,56 L60,57 L61,57 L61,58 L62,58 L62,59 L63,59 L63,60 L64,60 L64,61 L65,61 L65,62 L66,62 L66,63 L67,63 L67,64 L68,64 L68,65 L69,65 L69,66 L70,66 L70,67 L71,67 L71,68 L72,68 L72,69 L172,69 L172,70 L173,70 L173,170 L174,170 L174,171 L175,171 L175,172 L176,172 L176,173 L177,173 L177,174 L178,174 L178,175 L179,175 L179,176 L180,176 L180,177 L181,177 L181,178 L182,178 L182,179 L183,179 L183,180 L184,180 L184,181 L185,181 L185,182 L186,182 L186,183 L187,183 L187,184 L188,184 L188,185 L189,185 L189,186 L190,186 L190,187 L191,187 L191,188 L192,188 L192,189 L193,189 L193,190 L194,190 L194,191 L195,191 L195,192 L196,192 L196,193 L197,193 L197,194 L198,194 L198,195 L199,195 L199,196 L200,196 L200,197 L201,197 L201,198 L202,198 L202,199 L203,199 L203,200 L204,200 L204,201 L205,201 L205,202 L206,202 L206,203 L207,203 L207,204 L208,204 L208,205 L209,205 L209,206 L210,206 L210,207 L211,207 L211,208 L212,208 L212,209 L213,209 L213,210 L214,210 L214,211 L215,211 L215,212 L216,212 L216,213 L217,213 L217,214 L218,214 L218,215 L219,215 L219,216 L220,216 L220,217 L221,217 L221,218 L222,218 L222,219 L223,219 L223,220 L224,220 L224,221 L225,221 L225,222 L226,222 L226,223 L227,223 L227,224 L228,224 L228,225 L229,225 L229,226 L230,226 L230,227 L231,227 L231,228 L232,228 L232,229 L233,229 L233,230 L234,230 L234,231 L235,231 L235,232 L236,232 L236,233 L237,233 L237,234 L238,234 L238,235 L239,235 L239,236 L240,236 L240,237 L241,237 L241,238 L242,238 L242,242 L241,242 L241,243 L240,243 L240,244 L239,244 L239,245 L238,245 L238,246 L237,246 L237,247 L236,247 L236,248 L235,248 L235,249 L234,249 L234,250 L233,250 L233,251 L232,251 L232,252 L231,252 L231,253 L230,253 L230,254 L229,254 L229,255 L228,255 L228,256 L227,256 L227,257 L226,257 L226,258 L225,258 L225,259 L224,259 L224,260 L223,260 L223,261 L222,261 L222,262 L221,262 L221,263 L220,263 L220,264 L219,264 L219,265 L218,265 L218,266 L217,266 L217,267 L216,267 L216,268 L215,268 L215,269 L214,269 L214,270 L213,270 L213,271 L212,271 L212,272 L211,272 L211,273 L210,273 L210,274 L209,274 L209,275 L208,275 L208,276 L207,276 L207,277 L206,277 L206,278 L205,278 L205,279 L204,279 L204,280 L203,280 L203,281 L202,281 L202,282 L201,282 L201,283 L200,283 L200,284 L199,284 L199,285 L198,285 L198,286 L197,286 L197,287 L196,287 L196,288 L195,288 L195,289 L194,289 L194,290 L193,290 L193,291 L192,291 L192,292 L191,292 L191,293 L190,293 L190,294 L189,294 L189,295 L188,295 L188,296 L187,296 L187,297 L186,297 L186,298 L185,298 L185,299 L184,299 L184,300 L183,300 L183,301 L182,301 L182,302 L181,302 L181,303 L180,303 L180,304 L179,304 L179,305 L178,305 L178,306 L177,306 L177,307 L176,307 L176,308 L175,308 L175,309 L174,309 L174,310 L173,310 L173,410 L172,410 L172,411 L72,411 L72,412 L71,412 L71,413 L70,413 L70,414 L69,414 L69,415 L68,415 L68,416 L67,416 L67,417 L66,417 L66,418 L65,418 L65,419 L64,419 L64,420 L63,420 L63,421 L62,421 L62,422 L61,422 L61,423 L60,423 L60,424 L59,424 L59,425 L58,425 L58,426 L57,426 L57,427 L56,427 L56,428 L55,428 L55,429 L54,429 L54,430 L53,430 L53,431 L52,431 L52,432 L51,432 L51,433 L50,433 L50,434 L49,434 L49,435 L48,435 L48,436 L47,436 L47,437 L46,437 L46,438 L45,438 L45,439 L44,439 L44,440 L43,440 L43,441 L42,441 L42,442 L41,442 L41,443 L40,443 L40,444 L39,444 L39,445 L38,445 L38,446 L37,446 L37,447 L36,447 L36,448 L35,448 L35,449 L34,449 L34,450 L33,450 L33,451 L32,451 L32,452 L31,452 L31,453 L30,453 L30,454 L29,454 L29,455 L28,455 L28,456 L27,456 L27,457 L26,457 L26,458 L25,458 L25,459 L24,459 L24,460 L23,460 L23,461 L22,461 L22,462 L21,462 L21,463 L20,463 L20,464 L19,464 L19,465 L18,465 L18,466 L17,466 L17,467 L16,467 L16,468 L15,468 L15,469 L14,469 L14,470 L13,470 L13,471 L12,471 L12,472 L11,472 L11,473 L10,473 L10,474 L9,474 L9,475 L8,475 L8,476 L7,476 L7,477 L6,477 L6,478 L5,478 L5,479 L4,479 L4,480 L0,480 L0,479 L-1,479 L-1,478 L-2,478 L-2,477 L-3,477 L-3,476 L-4,476 L-4,475 L-5,475 L-5,474 L-6,474 L-6,473 L-7,473 L-7,472 L-8,472 L-8,471 L-9,471 L-9,470 L-10,470 L-10,469 L-11,469 L-11,468 L-12,468 L-12,467 L-13,467 L-13,466 L-14,466 L-14,465 L-15,465 L-15,464 L-16,464 L-16,463 L-17,463 L-17,462 L-18,462 L-18,461 L-19,461 L-19,460 L-20,460 L-20,459 L-21,459 L-21,458 L-22,458 L-22,457 L-23,457 L-23,456 L-24,456 L-24,455 L-25,455 L-25,454 L-26,454 L-26,453 L-27,453 L-27,452 L-28,452 L-28,451 L-29,451 L-29,450 L-30,450 L-30,449 L-31,449 L-31,448 L-32,448 L-32,447 L-33,447 L-33,446 L-34,446 L-34,445 L-35,445 L-35,444 L-36,444 L-36,443 L-37,443 L-37,442 L-38,442 L-38,441 L-39,441 L-39,440 L-40,440 L-40,439 L-41,439 L-41,438 L-42,438 L-42,437 L-43,437 L-43,436 L-44,436 L-44,435 L-45,435 L-45,434 L-46,434 L-46,433 L-47,433 L-47,432 L-48,432 L-48,431 L-49,431 L-49,430 L-50,430 L-50,429 L-51,429 L-51,428 L-52,428 L-52,427 L-53,427 L-53,426 L-54,426 L-54,425 L-55,425 L-55,424 L-56,424 L-56,423 L-57,423 L-57,422 L-58,422 L-58,421 L-59,421 L-59,420 L-60,420 L-60,419 L-61,419 L-61,418 L-62,418 L-62,417 L-63,417 L-63,416 L-64,416 L-64,415 L-65,415 L-65,414 L-66,414 L-66,413 L-67,413 L-67,412 L-68,412 L-68,411 L-168,411 L-168,410 L-169,410 L-169,310 L-170,310 L-170,309 L-171,309 L-171,308 L-172,308 L-172,307 L-173,307 L-173,306 L-174,306 L-174,305 L-175,305 L-175,304 L-176,304 L-176,303 L-177,303 L-177,302 L-178,302 L-178,301 L-179,301 L-179,300 L-180,300 L-180,299 L-181,299 L-181,298 L-182,298 L-182,297 L-183,297 L-183,296 L-184,296 L-184,295 L-185,295 L-185,294 L-186,294 L-186,293 L-187,293 L-187,292 L-188,292 L-188,291 L-189,291 L-189,290 L-190,290 L-190,289 L-191,289 L-191,288 L-192,288 L-192,287 L-193,287 L-193,286 L-194,286 L-194,285 L-195,285 L-195,284 L-196,284 L-196,283 L-197,283 L-197,282 L-198,282 L-198,281 L-199,281 L-199,280 L-200,280 L-200,279 L-201,279 L-201,278 L-202,278 L-202,277 L-203,277 L-203,276 L-204,276 L-204,275 L-205,275 L-205,274 L-206,274 L-206,273 L-207,273 L-207,272 L-208,272 L-208,271 L-209,271 L-209,270 L-210,270 L-210,269 L-211,269 L-211,268 L-212,268 L-212,267 L-213,267 L-213,266 L-214,266 L-214,265 L-215,265 L-215,264 L-216,264 L-216,263 L-217,263 L-217,262 L-218,262 L-218,261 L-219,261 L-219,260 L-220,260 L-220,259 L-221,259 L-221,258 L-222,258 L-222,257 L-223,257 L-223,256 L-224,256 L-224,255 L-225,255 L-225,254 L-226,254 L-226,253 L-227,253 L-227,252 L-228,252 L-228,251 L-229,251 L-229,250 L-230,250 L-230,249 L-231,249 L-231,248 L-232,248 L-232,247 L-233,247 L-233,246 L-234,246 L-234,245 L-235,245 L-235,244 L-236,244 L-236,243 L-237,243 L-237,242 L-238,242 L-238,238 L-237,238 L-237,237 L-236,237 L-236,236 L-235,236 L-235,235 L-234,235 L-234,234 L-233,234 L-233,233 L-232,233 L-232,232 L-231,232 L-231,231 L-230,231 L-230,230 L-229,230 L-229,229 L-228,229 L-228,228 L-227,228 L-227,227 L-226,227 L-226,226 L-225,226 L-225,225 L-224,225 L-224,224 L-223,224 L-223,223 L-222,223 L-222,222 L-221,222 L-221,221 L-220,221 L-220,220 L-219,220 L-219,219 L-218,219 L-218,218 L-217,218 L-217,217 L-216,217 L-216,216 L-215,216 L-215,215 L-214,215 L-214,214 L-213,214 L-213,213 L-212,213 L-212,212 L-211,212 L-211,211 L-210,211 L-210,210 L-209,210 L-209,209 L-208,209 L-208,208 L-207,208 L-207,207 L-206,207 L-206,206 L-205,206 L-205,205 L-204,205 L-204,204 L-203,204 L-203,203 L-202,203 L-202,202 L-201,202 L-201,201 L-200,201 L-200,200 L-199,200 L-199,199 L-198,199 L-198,198 L-197,198 L-197,197 L-196,197 L-196,196 L-195,196 L-195,195 L-194,195 L-194,194 L-193,194 L-193,193 L-192,193 L-192,192 L-191,192 L-191,191 L-190,191 L-190,190 L-189,190 L-189,189 L-188,189 L-188,188 L-187,188 L-187,187 L-186,187 L-186,186 L-185,186 L-185,185 L-184,185 L-184,184 L-183,184 L-183,183 L-182,183 L-182,182 L-181,182 L-181,181 L-180,181 L-180,180 L-179,180 L-179,179 L-178,179 L-178,178 L-177,178 L-177,177 L-176,177 L-176,176 L-175,176 L-175,175 L-174,175 L-174,174 L-173,174 L-173,173 L-172,173 L-172,172 L-171,172 L-171,171 L-170,171 L-170,170 L-169,170 L-169,70 L-168,70 L-168,69 L-68,69 L-68,68 L-67,68 L-67,67 L-66,67 L-66,66 L-65,66 L-65,65 L-64,65 L-64,64 L-63,64 L-63,63 L-62,63 L-62,62 L-61,62 L-61,61 L-60,61 L-60,60 L-59,60 L-59,59 L-58,59 L-58,58 L-57,58 L-57,57 L-56,57 L-56,56 L-55,56 L-55,55 L-54,55 L-54,54 L-53,54 L-53,53 L-52,53 L-52,52 L-51,52 L-51,51 L-50,51 L-50,50 L-49,50 L-49,49 L-48,49 L-48,48 L-47,48 L-47,47 L-46,47 L-46,46 L-45,46 L-45,45 L-44,45 L-44,44 L-43,44 L-43,43 L-42,43 L-42,42 L-41,42 L-41,41 L-40,41 L-40,40 L-39,40 L-39,39 L-38,39 L-38,38 L-37,38 L-37,37 L-36,37 L-36,36 L-35,36 L-35,35 L-34,35 L-34,34 L-33,34 L-33,33 L-32,33 L-32,32 L-31,32 L-31,31 L-30,31 L-30,30 L-29,30 L-29,29 L-28,29 L-28,28 L-27,28 L-27,27 L-26,27 L-26,26 L-25,26 L-25,25 L-24,25 L-24,24 L-23,24 L-23,23 L-22,23 L-22,22 L-21,22 L-21,21 L-20,21 L-20,20 L-19,20 L-19,19 L-18,19 L-18,18 L-17,18 L-17,17 L-16,17 L-16,16 L-15,16 L-15,15 L-14,15 L-14,14 L-13,14 L-13,13 L-12,13 L-12,12 L-11,12 L-11,11 L-10,11 L-10,10 L-9,10 L-9,9 L-8,9 L-8,8 L-7,8 L-7,7 L-6,7 L-6,6 L-5,6 L-5,5 L-4,5 L-4,4 L-3,4 L-3,3 L-2,3 L-2,2 L-1,2 L-1,1 L0,1 Z M1,48 L1,49 L0,49 L0,50 L-1,50 L-1,51 L-2,51 L-2,52 L-3,52 L-3,53 L-4,53 L-4,54 L-5,54 L-5,55 L-6,55 L-6,56 L-7,56 L-7,57 L-8,57 L-8,58 L-9,58 L-9,59 L-10,59 L-10,60 L-11,60 L-11,61 L-12,61 L-12,62 L-13,62 L-13,63 L-14,63 L-14,64 L-15,64 L-15,65 L-16,65 L-16,66 L-17,66 L-17,67 L-18,67 L-18,68 L-19,68 L-19,69 L-20,69 L-20,70 L-21,70 L-21,71 L-22,71 L-22,72 L-23,72 L-23,73 L-24,73 L-24,74 L-25,74 L-25,75 L-26,75 L-26,76 L-27,76 L-27,77 L-28,77 L-28,78 L-29,78 L-29,79 L-30,79 L-30,80 L-31,80 L-31,81 L-32,81 L-32,82 L-33,82 L-33,83 L-34,83 L-34,84 L-35,84 L-35,85 L-36,85 L-36,86 L-37,86 L-37,87 L-38,87 L-38,88 L-39,88 L-39,89 L-40,89 L-40,90 L-41,90 L-41,91 L-42,91 L-42,92 L-43,92 L-43,93 L-44,93 L-44,94 L-45,94 L-45,95 L-46,95 L-46,96 L-47,96 L-47,97 L-48,97 L-48,98 L-49,98 L-49,99 L-50,99 L-50,100 L-51,100 L-51,101 L-52,101 L-52,102 L-53,102 L-53,103 L-54,103 L-54,104 L-134,104 L-134,184 L-135,184 L-135,185 L-136,185 L-136,186 L-137,186 L-137,187 L-138,187 L-138,188 L-139,188 L-139,189 L-140,189 L-140,190 L-141,190 L-141,191 L-142,191 L-142,192 L-143,192 L-143,193 L-144,193 L-144,194 L-145,194 L-145,195 L-146,195 L-146,196 L-147,196 L-147,197 L-148,197 L-148,198 L-149,198 L-149,199 L-150,199 L-150,200 L-151,200 L-151,201 L-152,201 L-152,202 L-153,202 L-153,203 L-154,203 L-154,204 L-155,204 L-155,205 L-156,205 L-156,206 L-157,206 L-157,207 L-158,207 L-158,208 L-159,208 L-159,209 L-160,209 L-160,210 L-161,210 L-161,211 L-162,211 L-162,212 L-163,212 L-163,213 L-164,213 L-164,214 L-165,214 L-165,215 L-166,215 L-166,216 L-167,216 L-167,217 L-168,217 L-168,218 L-169,218 L-169,219 L-170,219 L-170,220 L-171,220 L-171,221 L-172,221 L-172,222 L-173,222 L-173,223 L-174,223 L-174,224 L-175,224 L-175,225 L-176,225 L-176,226 L-177,226 L-177,227 L-178,227 L-178,228 L-179,228 L-179,229 L-180,229 L-180,230 L-181,230 L-181,231 L-182,231 L-182,232 L-183,232 L-183,233 L-184,233 L-184,234 L-185,234 L-185,235 L-186,235 L-186,236 L-187,236 L-187,237 L-188,237 L-188,238 L-189,238 L-189,239 L-190,239 L-190,241 L-189,241 L-189,242 L-188,242 L-188,243 L-187,243 L-187,244 L-186,244 L-186,245 L-185,245 L-185,246 L-184,246 L-184,247 L-183,247 L-183,248 L-182,248 L-182,249 L-181,249 L-181,250 L-180,250 L-180,251 L-179,251 L-179,252 L-178,252 L-178,253 L-177,253 L-177,254 L-176,254 L-176,255 L-175,255 L-175,256 L-174,256 L-174,257 L-173,257 L-173,258 L-172,258 L-172,259 L-171,259 L-171,260 L-170,260 L-170,261 L-169,261 L-169,262 L-168,262 L-168,263 L-167,263 L-167,264 L-166,264 L-166,265 L-165,265 L-165,266 L-164,266 L-164,267 L-163,267 L-163,268 L-162,268 L-162,269 L-161,269 L-161,270 L-160,270 L-160,271 L-159,271 L-159,272 L-158,272 L-158,273 L-157,273 L-157,274 L-156,274 L-156,275 L-155,275 L-155,276 L-154,276 L-154,277 L-153,277 L-153,278 L-152,278 L-152,279 L-151,279 L-151,280 L-150,280 L-150,281 L-149,281 L-149,282 L-148,282 L-148,283 L-147,283 L-147,284 L-146,284 L-146,285 L-145,285 L-145,286 L-144,286 L-144,287 L-143,287 L-143,288 L-142,288 L-142,289 L-141,289 L-141,290 L-140,290 L-140,291 L-139,291 L-139,292 L-138,292 L-138,293 L-137,293 L-137,294 L-136,294 L-136,295 L-135,295 L-135,296 L-134,296 L-134,376 L-54,376 L-54,377 L-53,377 L-53,378 L-52,378 L-52,379 L-51,379 L-51,380 L-50,380 L-50,381 L-49,381 L-49,382 L-48,382 L-48,383 L-47,383 L-47,384 L-46,384 L-46,385 L-45,385 L-45,386 L-44,386 L-44,387 L-43,387 L-43,388 L-42,388 L-42,389 L-41,389 L-41,390 L-40,390 L-40,391 L-39,391 L-39,392 L-38,392 L-38,393 L-37,393 L-37,394 L-36,394 L-36,395 L-35,395 L-35,396 L-34,396 L-34,397 L-33,397 L-33,398 L-32,398 L-32,399 L-31,399 L-31,400 L-30,400 L-30,401 L-29,401 L-29,402 L-28,402 L-28,403 L-27,403 L-27,404 L-26,404 L-26,405 L-25,405 L-25,406 L-24,406 L-24,407 L-23,407 L-23,408 L-22,408 L-22,409 L-21,409 L-21,410 L-20,410 L-20,411 L-19,411 L-19,412 L-18,412 L-18,413 L-17,413 L-17,414 L-16,414 L-16,415 L-15,415 L-15,416 L-14,416 L-14,417 L-13,417 L-13,418 L-12,418 L-12,419 L-11,419 L-11,420 L-10,420 L-10,421 L-9,421 L-9,422 L-8,422 L-8,423 L-7,423 L-7,424 L-6,424 L-6,425 L-5,425 L-5,426 L-4,426 L-4,427 L-3,427 L-3,428 L-2,428 L-2,429 L-1,429 L-1,430 L0,430 L0,431 L1,431 L1,432 L3,432 L3,431 L4,431 L4,430 L5,430 L5,429 L6,429 L6,428 L7,428 L7,427 L8,427 L8,426 L9,426 L9,425 L10,425 L10,424 L11,424 L11,423 L12,423 L12,422 L13,422 L13,421 L14,421 L14,420 L15,420 L15,419 L16,419 L16,418 L17,418 L17,417 L18,417 L18,416 L19,416 L19,415 L20,415 L20,414 L21,414 L21,413 L22,413 L22,412 L23,412 L23,411 L24,411 L24,410 L25,410 L25,409 L26,409 L26,408 L27,408 L27,407 L28,407 L28,406 L29,406 L29,405 L30,405 L30,404 L31,404 L31,403 L32,403 L32,402 L33,402 L33,401 L34,401 L34,400 L35,400 L35,399 L36,399 L36,398 L37,398 L37,397 L38,397 L38,396 L39,396 L39,395 L40,395 L40,394 L41,394 L41,393 L42,393 L42,392 L43,392 L43,391 L44,391 L44,390 L45,390 L45,389 L46,389 L46,388 L47,388 L47,387 L48,387 L48,386 L49,386 L49,385 L50,385 L50,384 L51,384 L51,383 L52,383 L52,382 L53,382 L53,381 L54,381 L54,380 L55,380 L55,379 L56,379 L56,378 L57,378 L57,377 L58,377 L58,376 L138,376 L138,296 L139,296 L139,295 L140,295 L140,294 L141,294 L141,293 L142,293 L142,292 L143,292 L143,291 L144,291 L144,290 L145,290 L145,289 L146,289 L146,288 L147,288 L147,287 L148,287 L148,286 L149,286 L149,285 L150,285 L150,284 L151,284 L151,283 L152,283 L152,282 L153,282 L153,281 L154,281 L154,280 L155,280 L155,279 L156,279 L156,278 L157,278 L157,277 L158,277 L158,276 L159,276 L159,275 L160,275 L160,274 L161,274 L161,273 L162,273 L162,272 L163,272 L163,271 L164,271 L164,270 L165,270 L165,269 L166,269 L166,268 L167,268 L167,267 L168,267 L168,266 L169,266 L169,265 L170,265 L170,264 L171,264 L171,263 L172,263 L172,262 L173,262 L173,261 L174,261 L174,260 L175,260 L175,259 L176,259 L176,258 L177,258 L177,257 L178,257 L178,256 L179,256 L179,255 L180,255 L180,254 L181,254 L181,253 L182,253 L182,252 L183,252 L183,251 L184,251 L184,250 L185,250 L185,249 L186,249 L186,248 L187,248 L187,247 L188,247 L188,246 L189,246 L189,245 L190,245 L190,244 L191,244 L191,243 L192,243 L192,242 L193,242 L193,241 L194,241 L194,239 L193,239 L193,238 L192,238 L192,237 L191,237 L191,236 L190,236 L190,235 L189,235 L189,234 L188,234 L188,233 L187,233 L187,232 L186,232 L186,231 L185,231 L185,230 L184,230 L184,229 L183,229 L183,228 L182,228 L182,227 L181,227 L181,226 L180,226 L180,225 L179,225 L179,224 L178,224 L178,223 L177,223 L177,222 L176,222 L176,221 L175,221 L175,220 L174,220 L174,219 L173,219 L173,218 L172,218 L172,217 L171,217 L171,216 L170,216 L170,215 L169,215 L169,214 L168,214 L168,213 L167,213 L167,212 L166,212 L166,211 L165,211 L165,210 L164,210 L164,209 L163,209 L163,208 L162,208 L162,207 L161,207 L161,206 L160,206 L160,205 L159,205 L159,204 L158,204 L158,203 L157,203 L157,202 L156,202 L156,201 L155,201 L155,200 L154,200 L154,199 L153,199 L153,198 L152,198 L152,197 L151,197 L151,196 L150,196 L150,195 L149,195 L149,194 L148,194 L148,193 L147,193 L147,192 L146,192 L146,191 L145,191 L145,190 L144,190 L144,189 L143,189 L143,188 L142,188 L142,187 L141,187 L141,186 L140,186 L140,185 L139,185 L139,184 L138,184 L138,104 L58,104 L58,103 L57,103 L57,102 L56,102 L56,101 L55,101 L55,100 L54,100 L54,99 L53,99 L53,98 L52,98 L52,97 L51,97 L51,96 L50,96 L50,95 L49,95 L49,94 L48,94 L48,93 L47,93 L47,92 L46,92 L46,91 L45,91 L45,90 L44,90 L44,89 L43,89 L43,88 L42,88 L42,87 L41,87 L41,86 L40,86 L40,85 L39,85 L39,84 L38,84 L38,83 L37,83 L37,82 L36,82 L36,81 L35,81 L35,80 L34,80 L34,79 L33,79 L33,78 L32,78 L32,77 L31,77 L31,76 L30,76 L30,75 L29,75 L29,74 L28,74 L28,73 L27,73 L27,72 L26,72 L26,71 L25,71 L25,70 L24,70 L24,69 L23,69 L23,68 L22,68 L22,67 L21,67 L21,66 L20,66 L20,65 L19,65 L19,64 L18,64 L18,63 L17,63 L17,62 L16,62 L16,61 L15,61 L15,60 L14,60 L14,59 L13,59 L13,58 L12,58 L12,57 L11,57 L11,56 L10,56 L10,55 L9,55 L9,54 L8,54 L8,53 L7,53 L7,52 L6,52 L6,51 L5,51 L5,50 L4,50 L4,49 L3,49 L3,48 Z " fill="#0E7948" transform="translate(238,0)"/>
<path d="M0,0 L2,0 L2,1 L3,1 L3,2 L4,2 L4,3 L5,3 L5,4 L6,4 L6,5 L7,5 L7,6 L8,6 L8,8 L9,8 L9,9 L10,9 L10,10 L11,10 L11,12 L12,12 L12,13 L13,13 L13,14 L14,14 L14,16 L15,16 L15,17 L16,17 L16,19 L17,19 L17,20 L18,20 L18,21 L19,21 L19,23 L20,23 L20,24 L21,24 L21,26 L22,26 L22,27 L23,27 L23,29 L24,29 L24,30 L25,30 L25,32 L26,32 L26,33 L27,33 L27,35 L28,35 L28,36 L29,36 L29,38 L30,38 L30,40 L31,40 L31,41 L32,41 L32,43 L33,43 L33,45 L34,45 L34,47 L35,47 L35,48 L36,48 L36,50 L37,50 L37,52 L38,52 L38,54 L39,54 L39,56 L40,56 L40,58 L41,58 L41,60 L42,60 L42,62 L43,62 L43,64 L44,64 L44,67 L45,67 L45,69 L46,69 L46,72 L47,72 L47,75 L48,75 L48,78 L49,78 L49,81 L50,81 L50,86 L51,86 L51,93 L52,93 L52,110 L51,110 L51,115 L52,115 L52,118 L53,118 L53,120 L54,120 L54,123 L55,123 L55,126 L57,126 L57,125 L58,125 L58,123 L59,123 L59,121 L60,121 L60,120 L61,120 L61,118 L62,118 L62,116 L63,116 L63,114 L64,114 L64,111 L65,111 L65,108 L66,108 L66,105 L67,105 L67,102 L68,102 L68,98 L69,98 L69,94 L70,94 L70,90 L71,90 L71,52 L70,52 L70,46 L69,46 L69,43 L55,43 L55,42 L36,42 L36,41 L38,41 L38,40 L40,40 L40,39 L42,39 L42,38 L44,38 L44,37 L46,37 L46,36 L48,36 L48,35 L50,35 L50,34 L52,34 L52,33 L53,33 L53,32 L55,32 L55,31 L57,31 L57,30 L59,30 L59,29 L61,29 L61,28 L63,28 L63,27 L65,27 L65,26 L67,26 L67,25 L69,25 L69,24 L71,24 L71,23 L73,23 L73,22 L75,22 L75,21 L77,21 L77,20 L79,20 L79,19 L81,19 L81,18 L83,18 L83,17 L84,17 L84,16 L86,16 L86,66 L85,66 L85,80 L84,80 L84,88 L83,88 L83,91 L82,91 L82,97 L81,97 L81,102 L80,102 L80,106 L79,106 L79,108 L78,108 L78,112 L77,112 L77,115 L76,115 L76,117 L75,117 L75,120 L74,120 L74,122 L73,122 L73,124 L72,124 L72,126 L71,126 L71,128 L70,128 L70,130 L69,130 L69,131 L68,131 L68,132 L67,132 L67,134 L66,134 L66,135 L65,135 L65,136 L64,136 L64,137 L63,137 L63,138 L62,138 L62,139 L61,139 L61,140 L60,140 L60,141 L59,141 L59,142 L58,142 L58,143 L60,143 L60,142 L62,142 L62,141 L63,141 L63,140 L65,140 L65,139 L67,139 L67,138 L69,138 L69,137 L71,137 L71,136 L73,136 L73,135 L75,135 L75,134 L76,134 L76,133 L78,133 L78,132 L80,132 L80,131 L81,131 L81,130 L83,130 L83,129 L84,129 L84,128 L85,128 L85,127 L87,127 L87,126 L88,126 L88,125 L89,125 L89,124 L91,124 L91,123 L92,123 L92,122 L93,122 L93,121 L94,121 L94,120 L95,120 L95,119 L96,119 L96,118 L97,118 L97,117 L98,117 L98,116 L99,116 L99,115 L100,115 L100,114 L101,114 L101,113 L102,113 L102,112 L103,112 L103,111 L104,111 L104,109 L105,109 L105,108 L106,108 L106,107 L107,107 L107,105 L108,105 L108,104 L109,104 L109,102 L110,102 L110,101 L111,101 L111,99 L112,99 L112,97 L113,97 L113,95 L114,95 L114,92 L115,92 L115,90 L116,90 L116,88 L107,88 L107,87 L98,87 L98,86 L89,86 L89,85 L92,85 L92,84 L97,84 L97,83 L102,83 L102,82 L105,82 L105,81 L111,81 L111,80 L116,80 L116,79 L120,79 L120,78 L125,78 L125,77 L128,77 L128,76 L134,76 L134,75 L136,75 L136,77 L135,77 L135,80 L134,80 L134,82 L133,82 L133,84 L132,84 L132,86 L131,86 L131,88 L130,88 L130,89 L129,89 L129,91 L128,91 L128,93 L127,93 L127,95 L126,95 L126,96 L125,96 L125,98 L124,98 L124,99 L123,99 L123,101 L122,101 L122,102 L121,102 L121,104 L120,104 L120,105 L119,105 L119,106 L118,106 L118,108 L117,108 L117,109 L116,109 L116,110 L115,110 L115,112 L114,112 L114,113 L113,113 L113,114 L112,114 L112,115 L111,115 L111,116 L110,116 L110,118 L109,118 L109,119 L108,119 L108,120 L107,120 L107,121 L106,121 L106,122 L105,122 L105,123 L104,123 L104,124 L103,124 L103,125 L102,125 L102,126 L100,126 L100,127 L99,127 L99,128 L98,128 L98,129 L97,129 L97,130 L96,130 L96,131 L94,131 L94,132 L93,132 L93,133 L92,133 L92,134 L90,134 L90,135 L89,135 L89,136 L87,136 L87,137 L86,137 L86,138 L84,138 L84,139 L82,139 L82,140 L80,140 L80,141 L79,141 L79,142 L77,142 L77,143 L74,143 L74,144 L72,144 L72,145 L69,145 L69,146 L66,146 L66,147 L63,147 L63,148 L61,148 L61,149 L56,149 L56,150 L49,150 L49,151 L24,151 L24,152 L22,152 L22,153 L20,153 L20,154 L18,154 L18,155 L17,155 L17,156 L15,156 L15,157 L13,157 L13,158 L12,158 L12,159 L11,159 L11,160 L10,160 L10,162 L9,162 L9,163 L8,163 L8,164 L7,164 L7,165 L5,165 L5,166 L-4,166 L-4,165 L-5,165 L-5,164 L-6,164 L-6,163 L-7,163 L-7,162 L-8,162 L-8,160 L-9,160 L-9,159 L-11,159 L-11,158 L-12,158 L-12,157 L-13,157 L-13,156 L-15,156 L-15,155 L-17,155 L-17,154 L-19,154 L-19,153 L-21,153 L-21,152 L-23,152 L-23,151 L-50,151 L-50,150 L-56,150 L-56,149 L-60,149 L-60,148 L-63,148 L-63,147 L-66,147 L-66,146 L-68,146 L-68,145 L-71,145 L-71,144 L-73,144 L-73,143 L-75,143 L-75,142 L-77,142 L-77,141 L-79,141 L-79,140 L-81,140 L-81,139 L-82,139 L-82,138 L-84,138 L-84,137 L-86,137 L-86,136 L-87,136 L-87,135 L-89,135 L-89,134 L-90,134 L-90,133 L-91,133 L-91,132 L-93,132 L-93,131 L-94,131 L-94,130 L-95,130 L-95,129 L-96,129 L-96,128 L-97,128 L-97,127 L-99,127 L-99,126 L-100,126 L-100,125 L-101,125 L-101,124 L-102,124 L-102,123 L-103,123 L-103,122 L-104,122 L-104,121 L-105,121 L-105,120 L-106,120 L-106,119 L-107,119 L-107,118 L-108,118 L-108,116 L-109,116 L-109,115 L-110,115 L-110,114 L-111,114 L-111,113 L-112,113 L-112,112 L-113,112 L-113,110 L-114,110 L-114,109 L-115,109 L-115,108 L-116,108 L-116,106 L-117,106 L-117,105 L-118,105 L-118,104 L-119,104 L-119,102 L-120,102 L-120,101 L-121,101 L-121,99 L-122,99 L-122,98 L-123,98 L-123,96 L-124,96 L-124,95 L-125,95 L-125,93 L-126,93 L-126,91 L-127,91 L-127,89 L-128,89 L-128,88 L-129,88 L-129,86 L-130,86 L-130,84 L-131,84 L-131,82 L-132,82 L-132,80 L-133,80 L-133,78 L-134,78 L-134,75 L-131,75 L-131,76 L-128,76 L-128,77 L-123,77 L-123,78 L-119,78 L-119,79 L-114,79 L-114,80 L-109,80 L-109,81 L-105,81 L-105,82 L-100,82 L-100,83 L-95,83 L-95,84 L-92,84 L-92,85 L-89,85 L-89,86 L-96,86 L-96,87 L-108,87 L-108,88 L-114,88 L-114,90 L-113,90 L-113,92 L-112,92 L-112,95 L-111,95 L-111,97 L-110,97 L-110,99 L-109,99 L-109,101 L-108,101 L-108,102 L-107,102 L-107,104 L-106,104 L-106,105 L-105,105 L-105,107 L-104,107 L-104,108 L-103,108 L-103,109 L-102,109 L-102,111 L-101,111 L-101,112 L-100,112 L-100,113 L-99,113 L-99,114 L-98,114 L-98,115 L-97,115 L-97,116 L-96,116 L-96,117 L-95,117 L-95,118 L-94,118 L-94,119 L-93,119 L-93,120 L-92,120 L-92,121 L-91,121 L-91,122 L-90,122 L-90,123 L-89,123 L-89,124 L-88,124 L-88,125 L-86,125 L-86,126 L-85,126 L-85,127 L-84,127 L-84,128 L-82,128 L-82,129 L-81,129 L-81,130 L-79,130 L-79,131 L-78,131 L-78,132 L-76,132 L-76,133 L-75,133 L-75,134 L-73,134 L-73,135 L-71,135 L-71,136 L-70,136 L-70,137 L-68,137 L-68,138 L-66,138 L-66,139 L-64,139 L-64,140 L-62,140 L-62,141 L-60,141 L-60,142 L-57,142 L-57,141 L-58,141 L-58,140 L-60,140 L-60,139 L-61,139 L-61,137 L-62,137 L-62,136 L-63,136 L-63,135 L-64,135 L-64,134 L-65,134 L-65,132 L-66,132 L-66,131 L-67,131 L-67,130 L-68,130 L-68,128 L-69,128 L-69,126 L-70,126 L-70,124 L-71,124 L-71,122 L-72,122 L-72,120 L-73,120 L-73,117 L-74,117 L-74,115 L-75,115 L-75,112 L-76,112 L-76,108 L-77,108 L-77,106 L-78,106 L-78,102 L-79,102 L-79,97 L-80,97 L-80,92 L-81,92 L-81,84 L-82,84 L-82,78 L-83,78 L-83,66 L-84,66 L-84,16 L-82,16 L-82,17 L-81,17 L-81,18 L-79,18 L-79,19 L-77,19 L-77,20 L-75,20 L-75,21 L-73,21 L-73,22 L-72,22 L-72,23 L-70,23 L-70,24 L-68,24 L-68,25 L-66,25 L-66,26 L-64,26 L-64,27 L-62,27 L-62,28 L-60,28 L-60,29 L-58,29 L-58,30 L-56,30 L-56,31 L-54,31 L-54,32 L-52,32 L-52,33 L-50,33 L-50,34 L-48,34 L-48,35 L-46,35 L-46,36 L-44,36 L-44,37 L-42,37 L-42,38 L-40,38 L-40,39 L-38,39 L-38,40 L-36,40 L-36,41 L-34,41 L-34,42 L-51,42 L-51,43 L-67,43 L-67,46 L-68,46 L-68,52 L-69,52 L-69,90 L-68,90 L-68,94 L-67,94 L-67,98 L-66,98 L-66,102 L-65,102 L-65,105 L-64,105 L-64,110 L-63,110 L-63,111 L-62,111 L-62,114 L-61,114 L-61,116 L-60,116 L-60,118 L-59,118 L-59,120 L-58,120 L-58,121 L-57,121 L-57,123 L-56,123 L-56,125 L-55,125 L-55,126 L-54,126 L-54,125 L-53,125 L-53,122 L-52,122 L-52,120 L-51,120 L-51,117 L-50,117 L-50,115 L-49,115 L-49,112 L-48,112 L-48,106 L-49,106 L-49,92 L-48,92 L-48,88 L-47,88 L-47,83 L-46,83 L-46,80 L-45,80 L-45,77 L-44,77 L-44,74 L-43,74 L-43,72 L-42,72 L-42,69 L-41,69 L-41,67 L-40,67 L-40,65 L-39,65 L-39,63 L-38,63 L-38,61 L-37,61 L-37,58 L-36,58 L-36,57 L-35,57 L-35,55 L-34,55 L-34,53 L-33,53 L-33,51 L-32,51 L-32,49 L-31,49 L-31,47 L-30,47 L-30,45 L-29,45 L-29,44 L-28,44 L-28,42 L-27,42 L-27,40 L-26,40 L-26,39 L-25,39 L-25,37 L-24,37 L-24,35 L-23,35 L-23,34 L-22,34 L-22,32 L-21,32 L-21,30 L-20,30 L-20,29 L-19,29 L-19,27 L-18,27 L-18,26 L-17,26 L-17,24 L-16,24 L-16,23 L-15,23 L-15,21 L-14,21 L-14,20 L-13,20 L-13,18 L-12,18 L-12,17 L-11,17 L-11,15 L-10,15 L-10,14 L-9,14 L-9,12 L-8,12 L-8,11 L-7,11 L-7,10 L-6,10 L-6,8 L-5,8 L-5,7 L-4,7 L-4,6 L-3,6 L-3,4 L-2,4 L-2,3 L-1,3 L-1,1 L0,1 Z " fill="#090A09" transform="translate(239,148)"/>
<path d="M0,0 L2,0 L2,1 L3,1 L3,2 L4,2 L4,3 L5,3 L5,4 L6,4 L6,5 L7,5 L7,6 L8,6 L8,7 L9,7 L9,8 L10,8 L10,9 L11,9 L11,10 L12,10 L12,11 L13,11 L13,12 L14,12 L14,13 L15,13 L15,14 L16,14 L16,15 L17,15 L17,16 L18,16 L18,17 L19,17 L19,18 L20,18 L20,19 L21,19 L21,20 L22,20 L22,21 L23,21 L23,22 L24,22 L24,23 L25,23 L25,24 L26,24 L26,25 L27,25 L27,26 L28,26 L28,27 L29,27 L29,28 L30,28 L30,29 L31,29 L31,30 L32,30 L32,31 L33,31 L33,32 L34,32 L34,33 L35,33 L35,34 L36,34 L36,35 L37,35 L37,36 L38,36 L38,37 L39,37 L39,38 L40,38 L40,39 L41,39 L41,40 L42,40 L42,41 L43,41 L43,42 L45,42 L45,43 L46,43 L46,44 L47,44 L47,45 L48,45 L48,46 L49,46 L49,47 L50,47 L50,48 L51,48 L51,49 L52,49 L52,50 L53,50 L53,51 L54,51 L54,52 L55,52 L55,53 L56,53 L56,54 L57,54 L57,55 L58,55 L58,56 L59,56 L59,57 L60,57 L60,58 L61,58 L61,60 L147,60 L147,146 L149,146 L149,147 L150,147 L150,148 L151,148 L151,149 L152,149 L152,150 L153,150 L153,151 L154,151 L154,152 L155,152 L155,153 L156,153 L156,154 L157,154 L157,155 L158,155 L158,156 L159,156 L159,157 L160,157 L160,158 L161,158 L161,159 L162,159 L162,160 L163,160 L163,161 L164,161 L164,162 L165,162 L165,164 L166,164 L166,165 L167,165 L167,166 L168,166 L168,167 L169,167 L169,168 L170,168 L170,169 L171,169 L171,170 L172,170 L172,171 L173,171 L173,172 L174,172 L174,173 L175,173 L175,174 L176,174 L176,175 L177,175 L177,176 L178,176 L178,177 L179,177 L179,178 L180,178 L180,179 L181,179 L181,180 L182,180 L182,181 L183,181 L183,182 L184,182 L184,183 L185,183 L185,184 L186,184 L186,185 L187,185 L187,186 L188,186 L188,187 L189,187 L189,188 L190,188 L190,189 L191,189 L191,190 L192,190 L192,191 L193,191 L193,192 L194,192 L194,193 L195,193 L195,194 L196,194 L196,195 L197,195 L197,196 L198,196 L198,197 L199,197 L199,198 L200,198 L200,199 L201,199 L201,200 L202,200 L202,201 L203,201 L203,202 L204,202 L204,203 L205,203 L205,204 L206,204 L206,205 L207,205 L207,207 L206,207 L206,208 L205,208 L205,209 L204,209 L204,210 L203,210 L203,211 L202,211 L202,212 L201,212 L201,213 L200,213 L200,214 L199,214 L199,215 L198,215 L198,216 L197,216 L197,217 L196,217 L196,218 L195,218 L195,219 L194,219 L194,220 L193,220 L193,221 L192,221 L192,222 L191,222 L191,223 L190,223 L190,224 L189,224 L189,225 L188,225 L188,226 L187,226 L187,227 L186,227 L186,228 L185,228 L185,229 L184,229 L184,230 L183,230 L183,231 L182,231 L182,232 L181,232 L181,233 L180,233 L180,234 L179,234 L179,235 L178,235 L178,236 L177,236 L177,237 L176,237 L176,238 L175,238 L175,239 L174,239 L174,240 L173,240 L173,241 L172,241 L172,242 L171,242 L171,243 L170,243 L170,244 L169,244 L169,245 L168,245 L168,246 L167,246 L167,247 L166,247 L166,248 L165,248 L165,250 L164,250 L164,251 L163,251 L163,252 L162,252 L162,253 L161,253 L161,254 L160,254 L160,255 L159,255 L159,256 L158,256 L158,257 L157,257 L157,258 L156,258 L156,259 L155,259 L155,260 L154,260 L154,261 L153,261 L153,262 L152,262 L152,263 L151,263 L151,264 L150,264 L150,265 L149,265 L149,266 L147,266 L147,352 L61,352 L61,354 L60,354 L60,355 L59,355 L59,356 L58,356 L58,357 L57,357 L57,358 L56,358 L56,359 L55,359 L55,360 L54,360 L54,361 L53,361 L53,362 L52,362 L52,363 L51,363 L51,364 L50,364 L50,365 L49,365 L49,366 L48,366 L48,367 L47,367 L47,368 L46,368 L46,369 L45,369 L45,370 L44,370 L44,371 L43,371 L43,372 L41,372 L41,373 L40,373 L40,374 L39,374 L39,375 L38,375 L38,376 L37,376 L37,377 L36,377 L36,378 L35,378 L35,379 L34,379 L34,380 L33,380 L33,381 L32,381 L32,382 L31,382 L31,383 L30,383 L30,384 L29,384 L29,385 L28,385 L28,386 L27,386 L27,387 L26,387 L26,388 L25,388 L25,389 L24,389 L24,390 L23,390 L23,391 L22,391 L22,392 L21,392 L21,393 L20,393 L20,394 L19,394 L19,395 L18,395 L18,396 L17,396 L17,397 L16,397 L16,398 L15,398 L15,399 L14,399 L14,400 L13,400 L13,401 L12,401 L12,402 L11,402 L11,403 L10,403 L10,404 L9,404 L9,405 L8,405 L8,406 L7,406 L7,407 L6,407 L6,408 L5,408 L5,409 L4,409 L4,410 L3,410 L3,411 L2,411 L2,412 L0,412 L0,411 L-1,411 L-1,410 L-2,410 L-2,409 L-3,409 L-3,408 L-4,408 L-4,407 L-5,407 L-5,406 L-6,406 L-6,405 L-7,405 L-7,404 L-8,404 L-8,403 L-9,403 L-9,402 L-10,402 L-10,401 L-11,401 L-11,400 L-12,400 L-12,399 L-13,399 L-13,398 L-14,398 L-14,397 L-15,397 L-15,396 L-16,396 L-16,395 L-17,395 L-17,394 L-18,394 L-18,393 L-19,393 L-19,392 L-20,392 L-20,391 L-21,391 L-21,390 L-22,390 L-22,389 L-23,389 L-23,388 L-24,388 L-24,387 L-25,387 L-25,386 L-26,386 L-26,385 L-27,385 L-27,384 L-28,384 L-28,383 L-29,383 L-29,382 L-30,382 L-30,381 L-31,381 L-31,380 L-32,380 L-32,379 L-33,379 L-33,378 L-34,378 L-34,377 L-35,377 L-35,376 L-36,376 L-36,375 L-37,375 L-37,374 L-38,374 L-38,373 L-39,373 L-39,372 L-41,372 L-41,371 L-42,371 L-42,370 L-43,370 L-43,369 L-44,369 L-44,368 L-45,368 L-45,367 L-46,367 L-46,366 L-47,366 L-47,365 L-48,365 L-48,364 L-49,364 L-49,363 L-50,363 L-50,362 L-51,362 L-51,361 L-52,361 L-52,360 L-53,360 L-53,359 L-54,359 L-54,358 L-55,358 L-55,357 L-56,357 L-56,356 L-57,356 L-57,355 L-58,355 L-58,354 L-59,354 L-59,352 L-145,352 L-145,266 L-147,266 L-147,265 L-148,265 L-148,264 L-149,264 L-149,263 L-150,263 L-150,262 L-151,262 L-151,261 L-152,261 L-152,260 L-153,260 L-153,259 L-154,259 L-154,258 L-155,258 L-155,257 L-156,257 L-156,256 L-157,256 L-157,255 L-158,255 L-158,254 L-159,254 L-159,253 L-160,253 L-160,252 L-161,252 L-161,251 L-162,251 L-162,250 L-163,250 L-163,249 L-164,249 L-164,248 L-165,248 L-165,246 L-166,246 L-166,245 L-167,245 L-167,244 L-168,244 L-168,243 L-169,243 L-169,242 L-170,242 L-170,241 L-171,241 L-171,240 L-172,240 L-172,239 L-173,239 L-173,238 L-174,238 L-174,237 L-175,237 L-175,236 L-176,236 L-176,235 L-177,235 L-177,234 L-178,234 L-178,233 L-179,233 L-179,232 L-180,232 L-180,231 L-181,231 L-181,230 L-182,230 L-182,229 L-183,229 L-183,228 L-184,228 L-184,227 L-185,227 L-185,226 L-186,226 L-186,225 L-187,225 L-187,224 L-188,224 L-188,223 L-189,223 L-189,222 L-190,222 L-190,221 L-191,221 L-191,220 L-192,220 L-192,219 L-193,219 L-193,218 L-194,218 L-194,217 L-195,217 L-195,216 L-196,216 L-196,215 L-197,215 L-197,214 L-198,214 L-198,213 L-199,213 L-199,212 L-200,212 L-200,211 L-201,211 L-201,210 L-202,210 L-202,209 L-203,209 L-203,208 L-204,208 L-204,207 L-205,207 L-205,205 L-204,205 L-204,204 L-203,204 L-203,203 L-202,203 L-202,202 L-201,202 L-201,201 L-200,201 L-200,200 L-199,200 L-199,199 L-198,199 L-198,198 L-197,198 L-197,197 L-196,197 L-196,196 L-195,196 L-195,195 L-194,195 L-194,194 L-193,194 L-193,193 L-192,193 L-192,192 L-191,192 L-191,191 L-190,191 L-190,190 L-189,190 L-189,189 L-188,189 L-188,188 L-187,188 L-187,187 L-186,187 L-186,186 L-185,186 L-185,185 L-184,185 L-184,184 L-183,184 L-183,183 L-182,183 L-182,182 L-181,182 L-181,181 L-180,181 L-180,180 L-179,180 L-179,179 L-178,179 L-178,178 L-177,178 L-177,177 L-176,177 L-176,176 L-175,176 L-175,175 L-174,175 L-174,174 L-173,174 L-173,173 L-172,173 L-172,172 L-171,172 L-171,171 L-170,171 L-170,170 L-169,170 L-169,169 L-168,169 L-168,168 L-167,168 L-167,167 L-166,167 L-166,166 L-165,166 L-165,164 L-164,164 L-164,163 L-163,163 L-163,162 L-162,162 L-162,161 L-161,161 L-161,160 L-160,160 L-160,159 L-159,159 L-159,158 L-158,158 L-158,157 L-157,157 L-157,156 L-156,156 L-156,155 L-155,155 L-155,154 L-154,154 L-154,153 L-153,153 L-153,152 L-152,152 L-152,151 L-151,151 L-151,150 L-150,150 L-150,149 L-149,149 L-149,148 L-148,148 L-148,147 L-147,147 L-147,146 L-145,146 L-145,60 L-59,60 L-59,58 L-58,58 L-58,57 L-57,57 L-57,56 L-56,56 L-56,55 L-55,55 L-55,54 L-54,54 L-54,53 L-53,53 L-53,52 L-52,52 L-52,51 L-51,51 L-51,50 L-50,50 L-50,49 L-49,49 L-49,48 L-48,48 L-48,47 L-47,47 L-47,46 L-46,46 L-46,45 L-45,45 L-45,44 L-44,44 L-44,43 L-43,43 L-43,42 L-42,42 L-42,41 L-41,41 L-41,40 L-39,40 L-39,39 L-38,39 L-38,38 L-37,38 L-37,37 L-36,37 L-36,36 L-35,36 L-35,35 L-34,35 L-34,34 L-33,34 L-33,33 L-32,33 L-32,32 L-31,32 L-31,31 L-30,31 L-30,30 L-29,30 L-29,29 L-28,29 L-28,28 L-27,28 L-27,27 L-26,27 L-26,26 L-25,26 L-25,25 L-24,25 L-24,24 L-23,24 L-23,23 L-22,23 L-22,22 L-21,22 L-21,21 L-20,21 L-20,20 L-19,20 L-19,19 L-18,19 L-18,18 L-17,18 L-17,17 L-16,17 L-16,16 L-15,16 L-15,15 L-14,15 L-14,14 L-13,14 L-13,13 L-12,13 L-12,12 L-11,12 L-11,11 L-10,11 L-10,10 L-9,10 L-9,9 L-8,9 L-8,8 L-7,8 L-7,7 L-6,7 L-6,6 L-5,6 L-5,5 L-4,5 L-4,4 L-3,4 L-3,3 L-2,3 L-2,2 L-1,2 L-1,1 L0,1 Z M0,14 L0,15 L-1,15 L-1,16 L-2,16 L-2,17 L-3,17 L-3,18 L-4,18 L-4,19 L-5,19 L-5,20 L-6,20 L-6,21 L-7,21 L-7,22 L-8,22 L-8,23 L-9,23 L-9,24 L-10,24 L-10,25 L-11,25 L-11,26 L-12,26 L-12,27 L-13,27 L-13,28 L-14,28 L-14,29 L-15,29 L-15,30 L-16,30 L-16,31 L-17,31 L-17,32 L-18,32 L-18,33 L-19,33 L-19,34 L-20,34 L-20,35 L-21,35 L-21,36 L-22,36 L-22,37 L-23,37 L-23,38 L-24,38 L-24,39 L-25,39 L-25,40 L-26,40 L-26,41 L-27,41 L-27,42 L-28,42 L-28,43 L-29,43 L-29,44 L-30,44 L-30,45 L-31,45 L-31,46 L-32,46 L-32,47 L-33,47 L-33,48 L-34,48 L-34,49 L-35,49 L-35,50 L-36,50 L-36,51 L-37,51 L-37,52 L-38,52 L-38,53 L-39,53 L-39,54 L-40,54 L-40,55 L-41,55 L-41,56 L-42,56 L-42,57 L-43,57 L-43,58 L-44,58 L-44,59 L-45,59 L-45,60 L-46,60 L-46,61 L-47,61 L-47,62 L-48,62 L-48,63 L-49,63 L-49,64 L-50,64 L-50,65 L-51,65 L-51,66 L-52,66 L-52,67 L-53,67 L-53,68 L-54,68 L-54,69 L-55,69 L-55,70 L-135,70 L-135,150 L-136,150 L-136,151 L-137,151 L-137,152 L-138,152 L-138,153 L-139,153 L-139,154 L-140,154 L-140,155 L-141,155 L-141,156 L-142,156 L-142,157 L-143,157 L-143,158 L-144,158 L-144,159 L-145,159 L-145,160 L-146,160 L-146,161 L-147,161 L-147,162 L-148,162 L-148,163 L-149,163 L-149,164 L-150,164 L-150,165 L-151,165 L-151,166 L-152,166 L-152,167 L-153,167 L-153,168 L-154,168 L-154,169 L-155,169 L-155,170 L-156,170 L-156,171 L-157,171 L-157,172 L-158,172 L-158,173 L-159,173 L-159,174 L-160,174 L-160,175 L-161,175 L-161,176 L-162,176 L-162,177 L-163,177 L-163,178 L-164,178 L-164,179 L-165,179 L-165,180 L-166,180 L-166,181 L-167,181 L-167,182 L-168,182 L-168,183 L-169,183 L-169,184 L-170,184 L-170,185 L-171,185 L-171,186 L-172,186 L-172,187 L-173,187 L-173,188 L-174,188 L-174,189 L-175,189 L-175,190 L-176,190 L-176,191 L-177,191 L-177,192 L-178,192 L-178,193 L-179,193 L-179,194 L-180,194 L-180,195 L-181,195 L-181,196 L-182,196 L-182,197 L-183,197 L-183,198 L-184,198 L-184,199 L-185,199 L-185,200 L-186,200 L-186,201 L-187,201 L-187,202 L-188,202 L-188,203 L-189,203 L-189,204 L-190,204 L-190,205 L-191,205 L-191,207 L-190,207 L-190,208 L-189,208 L-189,209 L-188,209 L-188,210 L-187,210 L-187,211 L-186,211 L-186,212 L-185,212 L-185,213 L-184,213 L-184,214 L-183,214 L-183,215 L-182,215 L-182,216 L-181,216 L-181,217 L-180,217 L-180,218 L-179,218 L-179,219 L-178,219 L-178,220 L-177,220 L-177,221 L-176,221 L-176,222 L-175,222 L-175,223 L-174,223 L-174,224 L-173,224 L-173,225 L-172,225 L-172,226 L-171,226 L-171,227 L-170,227 L-170,228 L-169,228 L-169,229 L-168,229 L-168,230 L-167,230 L-167,231 L-166,231 L-166,232 L-165,232 L-165,233 L-164,233 L-164,234 L-163,234 L-163,235 L-162,235 L-162,236 L-161,236 L-161,237 L-160,237 L-160,238 L-159,238 L-159,239 L-158,239 L-158,240 L-157,240 L-157,241 L-156,241 L-156,242 L-155,242 L-155,243 L-154,243 L-154,244 L-153,244 L-153,245 L-152,245 L-152,246 L-151,246 L-151,247 L-150,247 L-150,248 L-149,248 L-149,249 L-148,249 L-148,250 L-147,250 L-147,251 L-146,251 L-146,252 L-145,252 L-145,253 L-144,253 L-144,254 L-143,254 L-143,255 L-142,255 L-142,256 L-141,256 L-141,257 L-140,257 L-140,258 L-139,258 L-139,259 L-138,259 L-138,260 L-137,260 L-137,261 L-136,261 L-136,262 L-135,262 L-135,342 L-55,342 L-55,343 L-54,343 L-54,344 L-53,344 L-53,345 L-52,345 L-52,346 L-51,346 L-51,347 L-50,347 L-50,348 L-49,348 L-49,349 L-48,349 L-48,350 L-47,350 L-47,351 L-46,351 L-46,352 L-45,352 L-45,353 L-44,353 L-44,354 L-43,354 L-43,355 L-42,355 L-42,356 L-41,356 L-41,357 L-40,357 L-40,358 L-39,358 L-39,359 L-38,359 L-38,360 L-37,360 L-37,361 L-36,361 L-36,362 L-35,362 L-35,363 L-34,363 L-34,364 L-33,364 L-33,365 L-32,365 L-32,366 L-31,366 L-31,367 L-30,367 L-30,368 L-29,368 L-29,369 L-28,369 L-28,370 L-27,370 L-27,371 L-26,371 L-26,372 L-25,372 L-25,373 L-24,373 L-24,374 L-23,374 L-23,375 L-22,375 L-22,376 L-21,376 L-21,377 L-20,377 L-20,378 L-19,378 L-19,379 L-18,379 L-18,380 L-17,380 L-17,381 L-16,381 L-16,382 L-15,382 L-15,383 L-14,383 L-14,384 L-13,384 L-13,385 L-12,385 L-12,386 L-11,386 L-11,387 L-10,387 L-10,388 L-9,388 L-9,389 L-8,389 L-8,390 L-7,390 L-7,391 L-6,391 L-6,392 L-5,392 L-5,393 L-4,393 L-4,394 L-3,394 L-3,395 L-2,395 L-2,396 L-1,396 L-1,397 L0,397 L0,398 L2,398 L2,397 L3,397 L3,396 L4,396 L4,395 L5,395 L5,394 L6,394 L6,393 L7,393 L7,392 L8,392 L8,391 L9,391 L9,390 L10,390 L10,389 L11,389 L11,388 L12,388 L12,387 L13,387 L13,386 L14,386 L14,385 L15,385 L15,384 L16,384 L16,383 L17,383 L17,382 L18,382 L18,381 L19,381 L19,380 L20,380 L20,379 L21,379 L21,378 L22,378 L22,377 L23,377 L23,376 L24,376 L24,375 L25,375 L25,374 L26,374 L26,373 L27,373 L27,372 L28,372 L28,371 L29,371 L29,370 L30,370 L30,369 L31,369 L31,368 L32,368 L32,367 L33,367 L33,366 L34,366 L34,365 L35,365 L35,364 L36,364 L36,363 L37,363 L37,362 L38,362 L38,361 L39,361 L39,360 L40,360 L40,359 L41,359 L41,358 L42,358 L42,357 L43,357 L43,356 L44,356 L44,355 L45,355 L45,354 L46,354 L46,353 L47,353 L47,352 L48,352 L48,351 L49,351 L49,350 L50,350 L50,349 L51,349 L51,348 L52,348 L52,347 L53,347 L53,346 L54,346 L54,345 L55,345 L55,344 L56,344 L56,343 L57,343 L57,342 L137,342 L137,262 L138,262 L138,261 L139,261 L139,260 L140,260 L140,259 L141,259 L141,258 L142,258 L142,257 L143,257 L143,256 L144,256 L144,255 L145,255 L145,254 L146,254 L146,253 L147,253 L147,252 L148,252 L148,251 L149,251 L149,250 L150,250 L150,249 L151,249 L151,248 L152,248 L152,247 L153,247 L153,246 L154,246 L154,245 L155,245 L155,244 L156,244 L156,243 L157,243 L157,242 L158,242 L158,241 L159,241 L159,240 L160,240 L160,239 L161,239 L161,238 L162,238 L162,237 L163,237 L163,236 L164,236 L164,235 L165,235 L165,234 L166,234 L166,233 L167,233 L167,232 L168,232 L168,231 L169,231 L169,230 L170,230 L170,229 L171,229 L171,228 L172,228 L172,227 L173,227 L173,226 L174,226 L174,225 L175,225 L175,224 L176,224 L176,223 L177,223 L177,222 L178,222 L178,221 L179,221 L179,220 L180,220 L180,219 L181,219 L181,218 L182,218 L182,217 L183,217 L183,216 L184,216 L184,215 L185,215 L185,214 L186,214 L186,213 L187,213 L187,212 L188,212 L188,211 L189,211 L189,210 L190,210 L190,209 L191,209 L191,208 L192,208 L192,207 L193,207 L193,205 L192,205 L192,204 L191,204 L191,203 L190,203 L190,202 L189,202 L189,201 L188,201 L188,200 L187,200 L187,199 L186,199 L186,198 L185,198 L185,197 L184,197 L184,196 L183,196 L183,195 L182,195 L182,194 L181,194 L181,193 L180,193 L180,192 L179,192 L179,191 L178,191 L178,190 L177,190 L177,189 L176,189 L176,188 L175,188 L175,187 L174,187 L174,186 L173,186 L173,185 L172,185 L172,184 L171,184 L171,183 L170,183 L170,182 L169,182 L169,181 L168,181 L168,180 L167,180 L167,179 L166,179 L166,178 L165,178 L165,177 L164,177 L164,176 L163,176 L163,175 L162,175 L162,174 L161,174 L161,173 L160,173 L160,172 L159,172 L159,171 L158,171 L158,170 L157,170 L157,169 L156,169 L156,168 L155,168 L155,167 L154,167 L154,166 L153,166 L153,165 L152,165 L152,164 L151,164 L151,163 L150,163 L150,162 L149,162 L149,161 L148,161 L148,160 L147,160 L147,159 L146,159 L146,158 L145,158 L145,157 L144,157 L144,156 L143,156 L143,155 L142,155 L142,154 L141,154 L141,153 L140,153 L140,152 L139,152 L139,151 L138,151 L138,150 L137,150 L137,70 L57,70 L57,69 L56,69 L56,68 L55,68 L55,67 L54,67 L54,66 L53,66 L53,65 L52,65 L52,64 L51,64 L51,63 L50,63 L50,62 L49,62 L49,61 L48,61 L48,60 L47,60 L47,59 L46,59 L46,58 L45,58 L45,57 L44,57 L44,56 L43,56 L43,55 L42,55 L42,54 L41,54 L41,53 L40,53 L40,52 L39,52 L39,51 L38,51 L38,50 L37,50 L37,49 L36,49 L36,48 L35,48 L35,47 L34,47 L34,46 L33,46 L33,45 L32,45 L32,44 L31,44 L31,43 L30,43 L30,42 L29,42 L29,41 L28,41 L28,40 L27,40 L27,39 L26,39 L26,38 L25,38 L25,37 L24,37 L24,36 L23,36 L23,35 L22,35 L22,34 L21,34 L21,33 L20,33 L20,32 L19,32 L19,31 L18,31 L18,30 L17,30 L17,29 L16,29 L16,28 L15,28 L15,27 L14,27 L14,26 L13,26 L13,25 L12,25 L12,24 L11,24 L11,23 L10,23 L10,22 L9,22 L9,21 L8,21 L8,20 L7,20 L7,19 L6,19 L6,18 L5,18 L5,17 L4,17 L4,16 L3,16 L3,15 L2,15 L2,14 Z " fill="#050505" transform="translate(239,34)"/>
<path d="M0,0 L2,0 L2,1 L3,1 L3,2 L4,2 L4,3 L5,3 L5,4 L6,4 L6,5 L7,5 L7,6 L8,6 L8,8 L9,8 L9,9 L10,9 L10,10 L11,10 L11,12 L12,12 L12,13 L13,13 L13,14 L14,14 L14,16 L15,16 L15,17 L16,17 L16,19 L17,19 L17,20 L18,20 L18,21 L19,21 L19,23 L20,23 L20,24 L21,24 L21,26 L22,26 L22,27 L23,27 L23,29 L24,29 L24,30 L25,30 L25,32 L26,32 L26,33 L27,33 L27,35 L28,35 L28,36 L29,36 L29,38 L30,38 L30,40 L31,40 L31,41 L32,41 L32,43 L33,43 L33,45 L34,45 L34,47 L35,47 L35,48 L36,48 L36,50 L37,50 L37,52 L38,52 L38,54 L39,54 L39,56 L40,56 L40,58 L41,58 L41,60 L42,60 L42,62 L43,62 L43,64 L44,64 L44,67 L45,67 L45,69 L46,69 L46,72 L47,72 L47,75 L48,75 L48,78 L49,78 L49,81 L50,81 L50,86 L51,86 L51,93 L52,93 L52,110 L51,110 L51,114 L50,114 L50,111 L49,111 L49,108 L48,108 L48,106 L47,106 L47,103 L46,103 L46,101 L45,101 L45,99 L44,99 L44,96 L43,96 L43,94 L42,94 L42,93 L35,93 L35,92 L34,92 L34,88 L33,88 L33,85 L32,85 L32,83 L31,83 L31,81 L30,81 L30,79 L29,79 L29,77 L28,77 L28,76 L27,76 L27,74 L26,74 L26,73 L25,73 L25,71 L24,71 L24,70 L23,70 L23,68 L22,68 L22,67 L21,67 L21,65 L20,65 L20,64 L19,64 L19,63 L18,63 L18,62 L17,62 L17,60 L16,60 L16,59 L15,59 L15,58 L14,58 L14,57 L13,57 L13,56 L12,56 L12,55 L11,55 L11,54 L10,54 L10,53 L9,53 L9,52 L8,52 L8,51 L7,51 L7,49 L6,49 L6,48 L5,48 L5,47 L4,47 L4,46 L3,46 L3,45 L0,45 L0,46 L-1,46 L-1,47 L-2,47 L-2,49 L-3,49 L-3,50 L-4,50 L-4,51 L-5,51 L-5,52 L-6,52 L-6,53 L-7,53 L-7,54 L-8,54 L-8,55 L-9,55 L-9,56 L-10,56 L-10,58 L-11,58 L-11,59 L-12,59 L-12,60 L-13,60 L-13,61 L-14,61 L-14,63 L-15,63 L-15,64 L-16,64 L-16,65 L-17,65 L-17,67 L-18,67 L-18,68 L-19,68 L-19,70 L-20,70 L-20,71 L-21,71 L-21,72 L-22,72 L-22,74 L-23,74 L-23,76 L-24,76 L-24,77 L-25,77 L-25,79 L-26,79 L-26,81 L-27,81 L-27,83 L-28,83 L-28,84 L-29,84 L-29,87 L-30,87 L-30,89 L-31,89 L-31,93 L-27,93 L-27,94 L-32,94 L-32,93 L-40,93 L-40,94 L-41,94 L-41,96 L-42,96 L-42,98 L-43,98 L-43,100 L-44,100 L-44,103 L-45,103 L-45,105 L-46,105 L-46,108 L-47,108 L-47,111 L-48,111 L-48,106 L-49,106 L-49,92 L-48,92 L-48,88 L-47,88 L-47,83 L-46,83 L-46,80 L-45,80 L-45,77 L-44,77 L-44,74 L-43,74 L-43,72 L-42,72 L-42,69 L-41,69 L-41,67 L-40,67 L-40,65 L-39,65 L-39,63 L-38,63 L-38,61 L-37,61 L-37,58 L-36,58 L-36,57 L-35,57 L-35,55 L-34,55 L-34,53 L-33,53 L-33,51 L-32,51 L-32,49 L-31,49 L-31,47 L-30,47 L-30,45 L-29,45 L-29,44 L-28,44 L-28,42 L-27,42 L-27,40 L-26,40 L-26,39 L-25,39 L-25,37 L-24,37 L-24,35 L-23,35 L-23,34 L-22,34 L-22,32 L-21,32 L-21,30 L-20,30 L-20,29 L-19,29 L-19,27 L-18,27 L-18,26 L-17,26 L-17,24 L-16,24 L-16,23 L-15,23 L-15,21 L-14,21 L-14,20 L-13,20 L-13,18 L-12,18 L-12,17 L-11,17 L-11,15 L-10,15 L-10,14 L-9,14 L-9,12 L-8,12 L-8,11 L-7,11 L-7,10 L-6,10 L-6,8 L-5,8 L-5,7 L-4,7 L-4,6 L-3,6 L-3,4 L-2,4 L-2,3 L-1,3 L-1,1 L0,1 Z " fill="#117D4C" transform="translate(239,148)"/>
<path d="M0,0 L2,0 L2,1 L3,1 L3,2 L5,2 L5,3 L7,3 L7,4 L9,4 L9,5 L11,5 L11,6 L12,6 L12,7 L14,7 L14,8 L16,8 L16,9 L18,9 L18,10 L20,10 L20,11 L22,11 L22,12 L24,12 L24,13 L26,13 L26,14 L28,14 L28,15 L30,15 L30,16 L32,16 L32,17 L34,17 L34,18 L36,18 L36,19 L38,19 L38,20 L40,20 L40,21 L42,21 L42,22 L44,22 L44,23 L46,23 L46,24 L48,24 L48,25 L50,25 L50,26 L33,26 L33,27 L17,27 L17,30 L16,30 L16,36 L15,36 L15,74 L16,74 L16,78 L17,78 L17,82 L18,82 L18,86 L19,86 L19,89 L20,89 L20,94 L21,94 L21,95 L22,95 L22,98 L23,98 L23,100 L24,100 L24,102 L25,102 L25,104 L26,104 L26,105 L27,105 L27,107 L28,107 L28,109 L29,109 L29,110 L30,110 L30,109 L31,109 L31,111 L30,111 L30,112 L29,112 L29,114 L28,114 L28,117 L27,117 L27,122 L36,122 L36,123 L39,123 L39,124 L41,124 L41,125 L43,125 L43,126 L45,126 L45,127 L47,127 L47,128 L48,128 L48,129 L50,129 L50,130 L52,130 L52,131 L54,131 L54,132 L56,132 L56,133 L58,133 L58,134 L60,134 L60,135 L34,135 L34,134 L28,134 L28,133 L24,133 L24,132 L21,132 L21,131 L18,131 L18,130 L16,130 L16,129 L13,129 L13,128 L11,128 L11,127 L9,127 L9,126 L7,126 L7,125 L5,125 L5,124 L3,124 L3,123 L2,123 L2,122 L0,122 L0,121 L-2,121 L-2,120 L-3,120 L-3,119 L-5,119 L-5,118 L-6,118 L-6,117 L-7,117 L-7,116 L-9,116 L-9,115 L-10,115 L-10,114 L-11,114 L-11,113 L-12,113 L-12,112 L-13,112 L-13,111 L-15,111 L-15,110 L-16,110 L-16,109 L-17,109 L-17,108 L-18,108 L-18,107 L-19,107 L-19,106 L-20,106 L-20,105 L-21,105 L-21,104 L-22,104 L-22,103 L-23,103 L-23,102 L-24,102 L-24,100 L-25,100 L-25,99 L-26,99 L-26,98 L-27,98 L-27,97 L-28,97 L-28,96 L-29,96 L-29,94 L-30,94 L-30,93 L-31,93 L-31,92 L-32,92 L-32,90 L-33,90 L-33,89 L-34,89 L-34,88 L-35,88 L-35,86 L-36,86 L-36,85 L-37,85 L-37,83 L-38,83 L-38,82 L-39,82 L-39,80 L-40,80 L-40,79 L-41,79 L-41,77 L-42,77 L-42,75 L-43,75 L-43,73 L-44,73 L-44,72 L-45,72 L-45,70 L-46,70 L-46,68 L-47,68 L-47,66 L-48,66 L-48,64 L-49,64 L-49,62 L-50,62 L-50,59 L-47,59 L-47,60 L-44,60 L-44,61 L-39,61 L-39,62 L-35,62 L-35,63 L-30,63 L-30,64 L-25,64 L-25,65 L-21,65 L-21,66 L-16,66 L-16,67 L-11,67 L-11,68 L-8,68 L-8,69 L-5,69 L-5,70 L-12,70 L-12,71 L-24,71 L-24,72 L-30,72 L-30,74 L-29,74 L-29,76 L-28,76 L-28,79 L-27,79 L-27,81 L-26,81 L-26,83 L-25,83 L-25,85 L-24,85 L-24,86 L-23,86 L-23,88 L-22,88 L-22,89 L-21,89 L-21,91 L-20,91 L-20,92 L-19,92 L-19,93 L-18,93 L-18,95 L-17,95 L-17,96 L-16,96 L-16,97 L-15,97 L-15,98 L-14,98 L-14,99 L-13,99 L-13,100 L-12,100 L-12,101 L-11,101 L-11,102 L-10,102 L-10,103 L-9,103 L-9,104 L-8,104 L-8,105 L-7,105 L-7,106 L-6,106 L-6,107 L-5,107 L-5,108 L-4,108 L-4,109 L-2,109 L-2,110 L-1,110 L-1,111 L0,111 L0,112 L2,112 L2,113 L3,113 L3,114 L5,114 L5,115 L6,115 L6,116 L8,116 L8,117 L9,117 L9,118 L11,118 L11,119 L13,119 L13,120 L14,120 L14,121 L16,121 L16,122 L18,122 L18,123 L20,123 L20,124 L22,124 L22,125 L24,125 L24,126 L27,126 L27,125 L26,125 L26,124 L24,124 L24,123 L23,123 L23,121 L22,121 L22,120 L21,120 L21,119 L20,119 L20,118 L19,118 L19,116 L18,116 L18,115 L17,115 L17,114 L16,114 L16,112 L15,112 L15,110 L14,110 L14,108 L13,108 L13,106 L12,106 L12,104 L11,104 L11,101 L10,101 L10,99 L9,99 L9,96 L8,96 L8,92 L7,92 L7,90 L6,90 L6,86 L5,86 L5,81 L4,81 L4,76 L3,76 L3,68 L2,68 L2,62 L1,62 L1,50 L0,50 Z " fill="#147F4E" transform="translate(155,164)"/>
<path d="M0,0 L2,0 L2,50 L1,50 L1,64 L0,64 L0,72 L-1,72 L-1,75 L-2,75 L-2,81 L-3,81 L-3,86 L-4,86 L-4,90 L-5,90 L-5,92 L-6,92 L-6,96 L-7,96 L-7,99 L-8,99 L-8,101 L-9,101 L-9,104 L-10,104 L-10,106 L-11,106 L-11,108 L-12,108 L-12,110 L-13,110 L-13,112 L-14,112 L-14,114 L-15,114 L-15,115 L-16,115 L-16,116 L-17,116 L-17,118 L-18,118 L-18,119 L-19,119 L-19,120 L-20,120 L-20,121 L-21,121 L-21,122 L-22,122 L-22,123 L-23,123 L-23,124 L-24,124 L-24,125 L-25,125 L-25,126 L-26,126 L-26,127 L-24,127 L-24,126 L-22,126 L-22,125 L-21,125 L-21,124 L-19,124 L-19,123 L-17,123 L-17,122 L-15,122 L-15,121 L-13,121 L-13,120 L-11,120 L-11,119 L-9,119 L-9,118 L-8,118 L-8,117 L-6,117 L-6,116 L-4,116 L-4,115 L-3,115 L-3,114 L-1,114 L-1,113 L0,113 L0,112 L1,112 L1,111 L3,111 L3,110 L4,110 L4,109 L5,109 L5,108 L7,108 L7,107 L8,107 L8,106 L9,106 L9,105 L10,105 L10,104 L11,104 L11,103 L12,103 L12,102 L13,102 L13,101 L14,101 L14,100 L15,100 L15,99 L16,99 L16,98 L17,98 L17,97 L18,97 L18,96 L19,96 L19,95 L20,95 L20,93 L21,93 L21,92 L22,92 L22,91 L23,91 L23,89 L24,89 L24,88 L25,88 L25,86 L26,86 L26,85 L27,85 L27,83 L28,83 L28,81 L29,81 L29,79 L30,79 L30,76 L31,76 L31,74 L32,74 L32,72 L23,72 L23,71 L14,71 L14,70 L5,70 L5,69 L8,69 L8,68 L13,68 L13,67 L18,67 L18,66 L21,66 L21,65 L27,65 L27,64 L32,64 L32,63 L36,63 L36,62 L41,62 L41,61 L44,61 L44,60 L50,60 L50,59 L52,59 L52,61 L51,61 L51,64 L50,64 L50,66 L49,66 L49,68 L48,68 L48,70 L47,70 L47,72 L46,72 L46,73 L45,73 L45,75 L44,75 L44,77 L43,77 L43,79 L42,79 L42,80 L41,80 L41,82 L40,82 L40,83 L39,83 L39,85 L38,85 L38,86 L37,86 L37,88 L36,88 L36,89 L35,89 L35,90 L34,90 L34,92 L33,92 L33,93 L32,93 L32,94 L31,94 L31,96 L30,96 L30,97 L29,97 L29,98 L28,98 L28,99 L27,99 L27,100 L26,100 L26,102 L25,102 L25,103 L24,103 L24,104 L23,104 L23,105 L22,105 L22,106 L21,106 L21,107 L20,107 L20,108 L19,108 L19,109 L18,109 L18,110 L16,110 L16,111 L15,111 L15,112 L14,112 L14,113 L13,113 L13,114 L12,114 L12,115 L10,115 L10,116 L9,116 L9,117 L8,117 L8,118 L6,118 L6,119 L5,119 L5,120 L3,120 L3,121 L2,121 L2,122 L0,122 L0,123 L-2,123 L-2,124 L-4,124 L-4,125 L-5,125 L-5,126 L-7,126 L-7,127 L-10,127 L-10,128 L-12,128 L-12,129 L-15,129 L-15,130 L-18,130 L-18,131 L-21,131 L-21,132 L-23,132 L-23,133 L-28,133 L-28,134 L-35,134 L-35,135 L-58,135 L-58,134 L-56,134 L-56,133 L-54,133 L-54,132 L-52,132 L-52,131 L-50,131 L-50,130 L-47,130 L-47,129 L-45,129 L-45,128 L-43,128 L-43,127 L-41,127 L-41,126 L-39,126 L-39,125 L-37,125 L-37,124 L-35,124 L-35,123 L-33,123 L-33,122 L-24,122 L-24,119 L-25,119 L-25,117 L-26,117 L-26,114 L-27,114 L-27,112 L-28,112 L-28,110 L-27,110 L-27,109 L-26,109 L-26,107 L-25,107 L-25,105 L-24,105 L-24,104 L-23,104 L-23,102 L-22,102 L-22,100 L-21,100 L-21,98 L-20,98 L-20,95 L-19,95 L-19,92 L-18,92 L-18,89 L-17,89 L-17,86 L-16,86 L-16,82 L-15,82 L-15,78 L-14,78 L-14,74 L-13,74 L-13,36 L-14,36 L-14,30 L-15,30 L-15,27 L-29,27 L-29,26 L-48,26 L-48,25 L-46,25 L-46,24 L-44,24 L-44,23 L-42,23 L-42,22 L-40,22 L-40,21 L-38,21 L-38,20 L-36,20 L-36,19 L-34,19 L-34,18 L-32,18 L-32,17 L-31,17 L-31,16 L-29,16 L-29,15 L-27,15 L-27,14 L-25,14 L-25,13 L-23,13 L-23,12 L-21,12 L-21,11 L-19,11 L-19,10 L-17,10 L-17,9 L-15,9 L-15,8 L-13,8 L-13,7 L-11,7 L-11,6 L-9,6 L-9,5 L-7,5 L-7,4 L-5,4 L-5,3 L-3,3 L-3,2 L-1,2 L-1,1 L0,1 Z " fill="#147F4F" transform="translate(323,164)"/>
<path d="M0,0 L3,0 L3,1 L4,1 L4,2 L5,2 L5,3 L6,3 L6,4 L7,4 L7,6 L8,6 L8,7 L9,7 L9,8 L10,8 L10,9 L11,9 L11,10 L12,10 L12,11 L13,11 L13,12 L14,12 L14,13 L15,13 L15,14 L16,14 L16,15 L17,15 L17,17 L18,17 L18,18 L19,18 L19,19 L20,19 L20,20 L21,20 L21,22 L22,22 L22,23 L23,23 L23,25 L24,25 L24,26 L25,26 L25,28 L26,28 L26,29 L27,29 L27,31 L28,31 L28,32 L29,32 L29,34 L30,34 L30,36 L31,36 L31,38 L32,38 L32,40 L33,40 L33,43 L34,43 L34,47 L35,47 L35,49 L22,49 L22,50 L17,50 L17,51 L14,51 L14,52 L11,52 L11,53 L9,53 L9,54 L8,54 L8,55 L6,55 L6,56 L4,56 L4,57 L3,57 L3,58 L-2,58 L-2,57 L-3,57 L-3,56 L-5,56 L-5,55 L-7,55 L-7,54 L-9,54 L-9,53 L-12,53 L-12,52 L-15,52 L-15,51 L-19,51 L-19,50 L-23,50 L-23,49 L-27,49 L-27,48 L-31,48 L-31,44 L-30,44 L-30,42 L-29,42 L-29,39 L-28,39 L-28,38 L-27,38 L-27,36 L-26,36 L-26,34 L-25,34 L-25,32 L-24,32 L-24,31 L-23,31 L-23,29 L-22,29 L-22,27 L-21,27 L-21,26 L-20,26 L-20,25 L-19,25 L-19,23 L-18,23 L-18,22 L-17,22 L-17,20 L-16,20 L-16,19 L-15,19 L-15,18 L-14,18 L-14,16 L-13,16 L-13,15 L-12,15 L-12,14 L-11,14 L-11,13 L-10,13 L-10,11 L-9,11 L-9,10 L-8,10 L-8,9 L-7,9 L-7,8 L-6,8 L-6,7 L-5,7 L-5,6 L-4,6 L-4,5 L-3,5 L-3,4 L-2,4 L-2,2 L-1,2 L-1,1 L0,1 Z " fill="#F5F7F7" transform="translate(239,193)"/>
<path d="M0,0 L13,0 L13,1 L18,1 L18,2 L20,2 L20,3 L24,3 L24,4 L26,4 L26,5 L29,5 L29,6 L31,6 L31,7 L33,7 L33,8 L35,8 L35,9 L36,9 L36,12 L34,12 L34,11 L33,11 L33,10 L31,10 L31,9 L30,9 L30,8 L28,8 L28,7 L26,7 L26,6 L23,6 L23,5 L20,5 L20,4 L16,4 L16,3 L2,3 L2,4 L9,4 L9,5 L17,5 L17,6 L21,6 L21,7 L24,7 L24,8 L26,8 L26,9 L28,9 L28,10 L30,10 L30,11 L32,11 L32,12 L33,12 L33,13 L36,13 L36,51 L34,51 L34,50 L33,50 L33,49 L31,49 L31,48 L29,48 L29,47 L27,47 L27,46 L25,46 L25,45 L23,45 L23,44 L20,44 L20,43 L18,43 L18,42 L15,42 L15,41 L13,41 L13,40 L10,40 L10,39 L5,39 L5,38 L2,38 L2,37 L-14,37 L-14,35 L-13,35 L-13,33 L-12,33 L-12,30 L-11,30 L-11,27 L-10,27 L-10,25 L-9,25 L-9,22 L-8,22 L-8,20 L-7,20 L-7,17 L-6,17 L-6,14 L-5,14 L-5,12 L-4,12 L-4,9 L-3,9 L-3,7 L-2,7 L-2,4 L-1,4 L-1,2 L0,2 Z " fill="#CECECE" transform="translate(202,246)"/>
<path d="M0,0 L11,0 L11,1 L12,1 L12,3 L13,3 L13,6 L14,6 L14,8 L15,8 L15,11 L16,11 L16,14 L17,14 L17,16 L18,16 L18,19 L19,19 L19,22 L20,22 L20,24 L21,24 L21,27 L22,27 L22,30 L23,30 L23,34 L24,34 L24,36 L13,36 L13,37 L8,37 L8,38 L2,38 L2,39 L0,39 L0,40 L-4,40 L-4,41 L-6,41 L-6,42 L-8,42 L-8,43 L-10,43 L-10,44 L-12,44 L-12,45 L-14,45 L-14,46 L-15,46 L-15,47 L-17,47 L-17,48 L-19,48 L-19,49 L-20,49 L-20,50 L-22,50 L-22,51 L-24,51 L-24,9 L-22,9 L-22,8 L-21,8 L-21,7 L-19,7 L-19,6 L-17,6 L-17,5 L-14,5 L-14,4 L-12,4 L-12,3 L-9,3 L-9,2 L-4,2 L-4,1 L0,1 Z " fill="#C8C8C8" transform="translate(266,245)"/>
<path d="M0,0 L21,0 L21,1 L24,1 L24,2 L27,2 L27,3 L30,3 L30,4 L32,4 L32,5 L33,5 L33,7 L26,7 L26,8 L17,8 L17,9 L15,9 L15,10 L13,10 L13,11 L12,11 L12,12 L10,12 L10,13 L9,13 L9,14 L7,14 L7,15 L6,15 L6,16 L5,16 L5,17 L3,17 L3,18 L2,18 L2,19 L1,19 L1,20 L0,20 L0,21 L-2,21 L-2,22 L-3,22 L-3,23 L-4,23 L-4,24 L-5,24 L-5,25 L-7,25 L-7,26 L-8,26 L-8,27 L-10,27 L-10,28 L-12,28 L-12,29 L-15,29 L-15,30 L-30,30 L-30,29 L-33,29 L-33,28 L-35,28 L-35,27 L-37,27 L-37,26 L-39,26 L-39,25 L-41,25 L-41,24 L-42,24 L-42,23 L-44,23 L-44,22 L-45,22 L-45,21 L-47,21 L-47,20 L-48,20 L-48,18 L-47,18 L-47,17 L-42,17 L-42,16 L-39,16 L-39,15 L-36,15 L-36,14 L-33,14 L-33,13 L-31,13 L-31,12 L-28,12 L-28,11 L-26,11 L-26,10 L-24,10 L-24,9 L-21,9 L-21,8 L-19,8 L-19,7 L-16,7 L-16,6 L-13,6 L-13,5 L-11,5 L-11,4 L-8,4 L-8,3 L-6,3 L-6,2 L-3,2 L-3,1 L0,1 Z " fill="#AE393C" transform="translate(195,303)"/>
<path d="M0,0 L10,0 L10,1 L15,1 L15,2 L19,2 L19,3 L22,3 L22,4 L25,4 L25,5 L27,5 L27,6 L30,6 L30,7 L32,7 L32,8 L35,8 L35,9 L38,9 L38,10 L40,10 L40,11 L43,11 L43,12 L45,12 L45,13 L47,13 L47,14 L50,14 L50,15 L52,15 L52,16 L55,16 L55,17 L58,17 L58,18 L62,18 L62,19 L65,19 L65,21 L64,21 L64,22 L63,22 L63,23 L61,23 L61,24 L60,24 L60,25 L58,25 L58,26 L56,26 L56,27 L54,27 L54,28 L52,28 L52,29 L50,29 L50,30 L46,30 L46,31 L31,31 L31,30 L29,30 L29,29 L27,29 L27,28 L25,28 L25,27 L24,27 L24,26 L23,26 L23,25 L21,25 L21,24 L20,24 L20,23 L19,23 L19,22 L18,22 L18,21 L16,21 L16,20 L15,20 L15,19 L14,19 L14,18 L13,18 L13,17 L11,17 L11,16 L10,16 L10,15 L8,15 L8,14 L7,14 L7,13 L5,13 L5,12 L4,12 L4,11 L2,11 L2,10 L-1,10 L-1,9 L-10,9 L-10,8 L-15,8 L-15,6 L-14,6 L-14,5 L-13,5 L-13,4 L-10,4 L-10,3 L-6,3 L-6,2 L-5,2 L-5,1 L0,1 Z " fill="#AE383B" transform="translate(268,302)"/>
<path d="M0,0 L11,0 L11,1 L13,1 L13,2 L14,2 L14,7 L13,7 L13,8 L12,8 L12,10 L13,10 L13,11 L14,11 L14,13 L15,13 L15,14 L16,14 L16,13 L17,13 L17,11 L18,11 L18,8 L19,8 L19,5 L20,5 L20,3 L21,3 L21,1 L22,1 L22,0 L27,0 L27,1 L28,1 L28,4 L29,4 L29,6 L30,6 L30,9 L31,9 L31,11 L32,11 L32,14 L33,14 L33,16 L27,16 L27,13 L21,13 L21,16 L10,16 L10,14 L9,14 L9,12 L8,12 L8,11 L7,11 L7,10 L5,10 L5,16 L0,16 Z " fill="#272727" transform="translate(326,357)"/>
<path d="M0,0 L9,0 L9,1 L10,1 L10,2 L11,2 L11,8 L10,8 L10,9 L9,9 L9,10 L10,10 L10,12 L11,12 L11,14 L12,14 L12,15 L13,15 L13,12 L14,12 L14,10 L15,10 L15,5 L16,5 L16,2 L17,2 L17,0 L22,0 L22,2 L23,2 L23,5 L24,5 L24,9 L25,9 L25,12 L26,12 L26,16 L22,16 L22,14 L17,14 L17,17 L7,17 L7,13 L6,13 L6,11 L5,11 L5,10 L4,10 L4,16 L0,16 Z " fill="#242424" transform="translate(158,336)"/>
<path d="M0,0 L3,0 L3,1 L4,1 L4,2 L5,2 L5,3 L6,3 L6,4 L7,4 L7,5 L8,5 L8,7 L9,7 L9,9 L10,9 L10,21 L9,21 L9,22 L8,22 L8,24 L7,24 L7,25 L6,25 L6,26 L5,26 L5,27 L4,27 L4,28 L2,28 L2,29 L-1,29 L-1,30 L-2,30 L-2,31 L-12,31 L-12,30 L-13,30 L-13,29 L-15,29 L-15,27 L-14,27 L-14,26 L-9,26 L-9,25 L-6,25 L-6,24 L-4,24 L-4,23 L-2,23 L-2,22 L-1,22 L-1,20 L0,20 L0,19 L1,19 L1,16 L2,16 L2,4 L1,4 L1,3 L0,3 Z " fill="#B14143" transform="translate(243,213)"/>
</svg>
